<svg class="main-svg" xmlns="http://www.w3.org/2000/svg" xmlns:xlink="http://www.w3.org/1999/xlink" width="1200" height="600" style="" viewBox="0 0 1200 600"><rect x="0" y="0" width="1200" height="600" style="fill: rgb(255, 255, 255); fill-opacity: 1;"/><defs id="defs-63934f"><g class="clips"><clipPath id="clip63934fxyplot" class="plotclip"><rect width="367.65000000000003" height="420"/></clipPath><clipPath id="clip63934fx2y2plot" class="plotclip"><rect width="367.65" height="420"/></clipPath><clipPath class="axesclip" id="clip63934fx"><rect x="80" y="0" width="367.65000000000003" height="600"/></clipPath><clipPath class="axesclip" id="clip63934fy"><rect x="0" y="100" width="1200" height="420"/></clipPath><clipPath class="axesclip" id="clip63934fxy"><rect x="80" y="100" width="367.65000000000003" height="420"/></clipPath><clipPath class="axesclip" id="clip63934fy2"><rect x="0" y="100" width="1200" height="420"/></clipPath><clipPath class="axesclip" id="clip63934fxy2"><rect x="80" y="100" width="367.65000000000003" height="420"/></clipPath><clipPath class="axesclip" id="clip63934fx2"><rect x="529.35" y="0" width="367.65" height="600"/></clipPath><clipPath class="axesclip" id="clip63934fx2y"><rect x="529.35" y="100" width="367.65" height="420"/></clipPath><clipPath class="axesclip" id="clip63934fx2y2"><rect x="529.35" y="100" width="367.65" height="420"/></clipPath></g><g class="gradients"/><g class="patterns"/></defs><g class="bglayer"><rect class="bg" x="80" y="100" width="367.65000000000003" height="420" style="fill: rgb(229, 236, 246); fill-opacity: 1; stroke-width: 0;"/><rect class="bg" x="529.35" y="100" width="367.65" height="420" style="fill: rgb(229, 236, 246); fill-opacity: 1; stroke-width: 0;"/></g><g class="layer-below"><g class="imagelayer"/><g class="shapelayer"/></g><g class="cartesianlayer"><g class="subplot xy"><g class="layer-subplot"><g class="shapelayer"/><g class="imagelayer"/></g><g class="minor-gridlayer"><g class="x"/><g class="y"/></g><g class="gridlayer"><g class="x"><path class="xgrid crisp" transform="translate(154.26999999999998,0)" d="M0,100v420" style="stroke: rgb(255, 255, 255); stroke-opacity: 1; stroke-width: 1px;"/><path class="xgrid crisp" transform="translate(228.55,0)" d="M0,100v420" style="stroke: rgb(255, 255, 255); stroke-opacity: 1; stroke-width: 1px;"/><path class="xgrid crisp" transform="translate(302.82,0)" d="M0,100v420" style="stroke: rgb(255, 255, 255); stroke-opacity: 1; stroke-width: 1px;"/><path class="xgrid crisp" transform="translate(377.09,0)" d="M0,100v420" style="stroke: rgb(255, 255, 255); stroke-opacity: 1; stroke-width: 1px;"/></g><g class="y"><path class="ygrid crisp" transform="translate(0,446.83)" d="M80,0h367.65000000000003" style="stroke: rgb(255, 255, 255); stroke-opacity: 1; stroke-width: 1px;"/><path class="ygrid crisp" transform="translate(0,381.61)" d="M80,0h367.65000000000003" style="stroke: rgb(255, 255, 255); stroke-opacity: 1; stroke-width: 1px;"/><path class="ygrid crisp" transform="translate(0,316.39)" d="M80,0h367.65000000000003" style="stroke: rgb(255, 255, 255); stroke-opacity: 1; stroke-width: 1px;"/><path class="ygrid crisp" transform="translate(0,251.17)" d="M80,0h367.65000000000003" style="stroke: rgb(255, 255, 255); stroke-opacity: 1; stroke-width: 1px;"/><path class="ygrid crisp" transform="translate(0,185.95)" d="M80,0h367.65000000000003" style="stroke: rgb(255, 255, 255); stroke-opacity: 1; stroke-width: 1px;"/><path class="ygrid crisp" transform="translate(0,120.73)" d="M80,0h367.65000000000003" style="stroke: rgb(255, 255, 255); stroke-opacity: 1; stroke-width: 1px;"/></g></g><g class="zerolinelayer"><path class="xzl zl crisp" transform="translate(80,0)" d="M0,100v420" style="stroke: rgb(255, 255, 255); stroke-opacity: 1; stroke-width: 2px;"/><path class="yzl zl crisp" transform="translate(0,512.04)" d="M80,0h367.65000000000003" style="stroke: rgb(255, 255, 255); stroke-opacity: 1; stroke-width: 2px;"/></g><path class="xlines-below"/><path class="ylines-below"/><g class="overlines-below"/><g class="xaxislayer-below"/><g class="yaxislayer-below"/><g class="overaxes-below"/><g class="plot" transform="translate(80,100)" clip-path="url(#clip63934fxyplot)"><g class="scatterlayer mlayer"><g class="trace scatter trace12344e" style="stroke-miterlimit: 2; opacity: 1;"><g class="fills"/><g class="errorbars"/><g class="lines"><path class="js-line" d="M0,399L14.85,393.44L18.57,391.76L29.71,385.78L33.42,383.43L44.56,375.3L48.28,372.14L59.42,361.08L63.13,356.75L74.27,341.98L77.99,336.28L89.13,316.83L92.84,309.72L103.98,286.48L107.7,278.13L129.98,225.45L133.69,216.48L144.83,190.71L148.55,182.99L155.97,168.87L159.69,162.62L167.11,151.55L170.83,147.1L178.25,139.87L181.97,136.87L189.4,132.47L193.11,130.39L196.82,128.94L200.54,128.54L211.68,125.15L215.39,124.73L226.53,121.73L230.25,120.54L241.39,118.3L245.1,116.88L256.24,113.33L259.95,112.07L274.81,106.48L278.52,104.48L297.09,95.47L300.8,92.62L315.66,83.03L319.37,79.79L330.51,70.57L334.23,67.15L345.37,57.96L349.08,54.01L367.65,35.06" style="vector-effect: none; fill: none; stroke: rgb(0, 100, 80); stroke-opacity: 1; stroke-width: 2px; opacity: 1;"/></g><g class="points"/><g class="text"/></g><g class="trace scatter trace098c98" style="stroke-miterlimit: 2; opacity: 1;"><g class="fills"><g><path class="js-fill" d="M0,399L14.85,393.25L18.57,391.65L29.71,385.55L33.42,383.06L44.56,374.57L48.28,371.14L59.42,359.59L63.13,354.82L74.27,339.4L77.99,333.48L85.41,320.69L89.13,313.48L103.98,283.17L107.7,275.13L148.55,179.6L152.26,171.33L159.69,157.47L163.4,151.21L174.54,136.37L178.25,133.14L181.97,129.75L185.68,127.73L196.82,120.16L200.54,119.92L204.25,119.5L207.96,118.03L211.68,116.44L215.39,116.44L219.1,114.11L222.82,113.69L226.53,112.09L230.25,111.64L237.67,109.22L241.39,109.22L245.1,107.61L248.81,106.84L252.53,104.5L256.24,104.5L263.67,102.92L267.38,100.96L282.24,93.14L285.95,93.14L289.66,90.53L293.38,90.53L300.8,82.03L304.52,81.98L315.66,73.74L319.37,69.8L323.09,67.95L326.8,64.5L330.51,61.64L334.23,57.62L337.94,54.67L341.65,50.66L345.37,45.66L349.08,42.67L360.22,30.47L363.94,24.71L367.65,21L367.65,54.35L363.94,58.57L360.22,60.83L356.51,63.06L352.8,66.66L330.51,88.06L326.8,90.65L323.09,92.86L319.37,96.31L315.66,99.69L311.95,101.7L308.23,104.39L304.52,106.09L293.38,112.45L289.66,112.45L285.95,114.4L282.24,115.45L278.52,116.58L274.81,118.77L271.1,120.9L267.38,121.38L263.67,122.29L259.95,123.98L230.25,129.91L226.53,130.19L207.96,130.72L204.25,131.79L200.54,134.02L196.82,134.02L193.11,135.03L189.4,137.85L185.68,138.53L181.97,141.43L170.83,153.41L167.11,157.49L155.97,173.47L152.26,180.33L144.83,194.53L141.12,202.46L133.69,219.23L129.98,228.46L96.55,305.38L92.84,312.82L77.99,338.62L74.27,344.24L66.85,354.43L63.13,358.85L55.7,366.69L51.99,369.9L37.14,381.26L33.42,383.61L22.28,390.03L18.57,391.89L3.71,397.83L0,399Z" style="fill: rgb(0, 100, 80); fill-opacity: 0.2; stroke-width: 0;"/></g></g><g class="errorbars"/><g class="lines"><path class="js-line" d="M0,399L14.85,393.25L18.57,391.65L29.71,385.55L33.42,383.06L44.56,374.57L48.28,371.14L59.42,359.59L63.13,354.82L74.27,339.4L77.99,333.48L85.41,320.69L89.13,313.48L103.98,283.17L107.7,275.13L148.55,179.6L152.26,171.33L159.69,157.47L163.4,151.21L174.54,136.37L178.25,133.14L181.97,129.75L185.68,127.73L196.82,120.16L200.54,119.92L204.25,119.5L207.96,118.03L211.68,116.44L215.39,116.44L219.1,114.11L222.82,113.69L226.53,112.09L230.25,111.64L237.67,109.22L241.39,109.22L245.1,107.61L248.81,106.84L252.53,104.5L256.24,104.5L263.67,102.92L267.38,100.96L282.24,93.14L285.95,93.14L289.66,90.53L293.38,90.53L300.8,82.03L304.52,81.98L315.66,73.74L319.37,69.8L323.09,67.95L326.8,64.5L330.51,61.64L334.23,57.62L337.94,54.67L341.65,50.66L345.37,45.66L349.08,42.67L360.22,30.47L363.94,24.71L367.65,21L367.65,54.35L363.94,58.57L360.22,60.83L356.51,63.06L352.8,66.66L330.51,88.06L326.8,90.65L323.09,92.86L319.37,96.31L315.66,99.69L311.95,101.7L308.23,104.39L304.52,106.09L293.38,112.45L289.66,112.45L285.95,114.4L282.24,115.45L278.52,116.58L274.81,118.77L271.1,120.9L267.38,121.38L263.67,122.29L259.95,123.98L230.25,129.91L226.53,130.19L207.96,130.72L204.25,131.79L200.54,134.02L196.82,134.02L193.11,135.03L189.4,137.85L185.68,138.53L181.97,141.43L170.83,153.41L167.11,157.49L155.97,173.47L152.26,180.33L144.83,194.53L141.12,202.46L133.69,219.23L129.98,228.46L96.55,305.38L92.84,312.82L77.99,338.62L74.27,344.24L66.85,354.43L63.13,358.85L55.7,366.69L51.99,369.9L37.14,381.26L33.42,383.61L22.28,390.03L18.57,391.89L3.71,397.83L0,399" style="vector-effect: none; fill: none; stroke: rgb(255, 255, 255); stroke-opacity: 0; stroke-width: 2px; opacity: 1;"/></g><g class="points"/><g class="text"/></g><g class="trace scatter trace80fecd" style="stroke-miterlimit: 2; opacity: 1;"><g class="fills"/><g class="errorbars"/><g class="lines"><path class="js-line" d="M0,399L11.14,394.44L14.85,392.6L26,385.9L29.71,383.21L40.85,373.5L44.56,369.63L51.99,360.82L55.7,355.82L63.13,344.51L66.85,338.15L77.99,316.07L81.7,307.65L92.84,279.27L96.55,268.82L111.41,223.24L115.12,211.26L133.69,153.17L137.4,142.77L144.83,124.11L148.55,116.02L155.97,102.63L159.69,97.38L167.11,89.71L170.83,87.24L178.25,84.75L181.97,84.61L367.65,84.61" style="vector-effect: none; fill: none; stroke: rgb(252, 3, 65); stroke-opacity: 1; stroke-dasharray: 9px, 9px; stroke-width: 2px; opacity: 1;"/></g><g class="points"/><g class="text"/></g><g class="trace scatter trace33ce13" style="stroke-miterlimit: 2; opacity: 1;"><g class="fills"><g><path class="js-fill" d="M0,399L11.14,394.44L14.85,392.6L26,385.9L29.71,383.21L40.85,373.5L44.56,369.63L51.99,360.82L55.7,355.82L63.13,344.51L66.85,338.15L77.99,316.07L81.7,307.65L92.84,279.27L96.55,268.82L111.41,223.22L115.12,211.24L133.69,153.14L137.4,142.74L144.83,124.07L148.55,115.98L155.97,102.59L159.69,97.33L167.11,89.66L170.83,87.18L178.25,84.69L181.97,84.55L367.65,84.55L178.25,85.16L174.54,86L170.83,87.62L167.11,90.08L159.69,97.71L155.97,102.95L148.55,116.3L144.83,124.37L137.4,142.98L133.69,153.36L118.84,199.36L115.12,211.36L96.55,268.85L92.84,279.29L81.7,307.65L77.99,316.07L66.85,338.15L63.13,344.51L51.99,360.82L48.28,365.41L37.14,377.03L33.42,380.26L22.28,388.35L18.57,390.57L7.43,396.11L3.71,397.62L0,399Z" style="fill: rgb(252, 3, 65); fill-opacity: 0.2; stroke-width: 0;"/></g></g><g class="errorbars"/><g class="lines"><path class="js-line" d="M0,399L11.14,394.44L14.85,392.6L26,385.9L29.71,383.21L40.85,373.5L44.56,369.63L51.99,360.82L55.7,355.82L63.13,344.51L66.85,338.15L77.99,316.07L81.7,307.65L92.84,279.27L96.55,268.82L111.41,223.22L115.12,211.24L133.69,153.14L137.4,142.74L144.83,124.07L148.55,115.98L155.97,102.59L159.69,97.33L167.11,89.66L170.83,87.18L178.25,84.69L181.97,84.55L367.65,84.55L178.25,85.16L174.54,86L170.83,87.62L167.11,90.08L159.69,97.71L155.97,102.95L148.55,116.3L144.83,124.37L137.4,142.98L133.69,153.36L118.84,199.36L115.12,211.36L96.55,268.85L92.84,279.29L81.7,307.65L77.99,316.07L66.85,338.15L63.13,344.51L51.99,360.82L48.28,365.41L37.14,377.03L33.42,380.26L22.28,388.35L18.57,390.57L7.43,396.11L3.71,397.62L0,399" style="vector-effect: none; fill: none; stroke: rgb(255, 255, 255); stroke-opacity: 0; stroke-width: 2px; opacity: 1;"/></g><g class="points"/><g class="text"/></g></g></g><g class="overplot"/><path class="xlines-above crisp" d="M0,0" style="fill: none;"/><path class="ylines-above crisp" d="M0,0" style="fill: none;"/><g class="overlines-above"/><g class="xaxislayer-above"><g class="xtick"><text text-anchor="middle" x="0" y="541" transform="translate(80,0)" style="font-family: 'Times New Roman'; font-size: 20px; fill: rgb(42, 63, 95); fill-opacity: 1; white-space: pre; opacity: 1;">0</text></g><g class="xtick"><text text-anchor="middle" x="0" y="541" style="font-family: 'Times New Roman'; font-size: 20px; fill: rgb(42, 63, 95); fill-opacity: 1; white-space: pre; opacity: 1;" transform="translate(154.26999999999998,0)">20</text></g><g class="xtick"><text text-anchor="middle" x="0" y="541" style="font-family: 'Times New Roman'; font-size: 20px; fill: rgb(42, 63, 95); fill-opacity: 1; white-space: pre; opacity: 1;" transform="translate(228.55,0)">40</text></g><g class="xtick"><text text-anchor="middle" x="0" y="541" style="font-family: 'Times New Roman'; font-size: 20px; fill: rgb(42, 63, 95); fill-opacity: 1; white-space: pre; opacity: 1;" transform="translate(302.82,0)">60</text></g><g class="xtick"><text text-anchor="middle" x="0" y="541" style="font-family: 'Times New Roman'; font-size: 20px; fill: rgb(42, 63, 95); fill-opacity: 1; white-space: pre; opacity: 1;" transform="translate(377.09,0)">80</text></g></g><g class="yaxislayer-above"><g class="ytick"><text text-anchor="end" x="79" y="7" transform="translate(0,512.04)" style="font-family: 'Times New Roman'; font-size: 20px; fill: rgb(42, 63, 95); fill-opacity: 1; white-space: pre; opacity: 1;">0</text></g><g class="ytick"><text text-anchor="end" x="79" y="7" style="font-family: 'Times New Roman'; font-size: 20px; fill: rgb(42, 63, 95); fill-opacity: 1; white-space: pre; opacity: 1;" transform="translate(0,446.83)">0.05</text></g><g class="ytick"><text text-anchor="end" x="79" y="7" style="font-family: 'Times New Roman'; font-size: 20px; fill: rgb(42, 63, 95); fill-opacity: 1; white-space: pre; opacity: 1;" transform="translate(0,381.61)">0.1</text></g><g class="ytick"><text text-anchor="end" x="79" y="7" style="font-family: 'Times New Roman'; font-size: 20px; fill: rgb(42, 63, 95); fill-opacity: 1; white-space: pre; opacity: 1;" transform="translate(0,316.39)">0.15</text></g><g class="ytick"><text text-anchor="end" x="79" y="7" style="font-family: 'Times New Roman'; font-size: 20px; fill: rgb(42, 63, 95); fill-opacity: 1; white-space: pre; opacity: 1;" transform="translate(0,251.17)">0.2</text></g><g class="ytick"><text text-anchor="end" x="79" y="7" style="font-family: 'Times New Roman'; font-size: 20px; fill: rgb(42, 63, 95); fill-opacity: 1; white-space: pre; opacity: 1;" transform="translate(0,185.95)">0.25</text></g><g class="ytick"><text text-anchor="end" x="79" y="7" style="font-family: 'Times New Roman'; font-size: 20px; fill: rgb(42, 63, 95); fill-opacity: 1; white-space: pre; opacity: 1;" transform="translate(0,120.73)">0.3</text></g></g><g class="overaxes-above"/></g><g class="subplot x2y2"><g class="layer-subplot"><g class="shapelayer"/><g class="imagelayer"/></g><g class="minor-gridlayer"><g class="x2"/><g class="y2"/></g><g class="gridlayer"><g class="x2"><path class="x2grid crisp" transform="translate(603.62,0)" d="M0,100v420" style="stroke: rgb(255, 255, 255); stroke-opacity: 1; stroke-width: 1px;"/><path class="x2grid crisp" transform="translate(677.9000000000001,0)" d="M0,100v420" style="stroke: rgb(255, 255, 255); stroke-opacity: 1; stroke-width: 1px;"/><path class="x2grid crisp" transform="translate(752.1700000000001,0)" d="M0,100v420" style="stroke: rgb(255, 255, 255); stroke-opacity: 1; stroke-width: 1px;"/><path class="x2grid crisp" transform="translate(826.44,0)" d="M0,100v420" style="stroke: rgb(255, 255, 255); stroke-opacity: 1; stroke-width: 1px;"/></g><g class="y2"><path class="y2grid crisp" transform="translate(0,452)" d="M529.35,0h367.65" style="stroke: rgb(255, 255, 255); stroke-opacity: 1; stroke-width: 1px;"/><path class="y2grid crisp" transform="translate(0,369.25)" d="M529.35,0h367.65" style="stroke: rgb(255, 255, 255); stroke-opacity: 1; stroke-width: 1px;"/><path class="y2grid crisp" transform="translate(0,286.5)" d="M529.35,0h367.65" style="stroke: rgb(255, 255, 255); stroke-opacity: 1; stroke-width: 1px;"/><path class="y2grid crisp" transform="translate(0,203.75)" d="M529.35,0h367.65" style="stroke: rgb(255, 255, 255); stroke-opacity: 1; stroke-width: 1px;"/><path class="y2grid crisp" transform="translate(0,121)" d="M529.35,0h367.65" style="stroke: rgb(255, 255, 255); stroke-opacity: 1; stroke-width: 1px;"/></g></g><g class="zerolinelayer"><path class="x2zl zl crisp" transform="translate(529.35,0)" d="M0,100v420" style="stroke: rgb(255, 255, 255); stroke-opacity: 1; stroke-width: 2px;"/></g><path class="xlines-below"/><path class="ylines-below"/><g class="overlines-below"/><g class="xaxislayer-below"/><g class="yaxislayer-below"/><g class="overaxes-below"/><g class="plot" transform="translate(529.35,100)" clip-path="url(#clip63934fx2y2plot)"><g class="scatterlayer mlayer"><g class="trace scatter trace134f7a" style="stroke-miterlimit: 2; opacity: 1;"><g class="fills"/><g class="errorbars"/><g class="lines"><path class="js-line" d="M0,21L14.85,27.31L18.57,29.26L29.71,36.17L33.42,38.88L44.56,48.4L48.28,52.1L59.42,64.97L63.13,69.91L74.27,86.94L77.99,93.39L89.13,115.26L92.84,123.42L103.98,150.32L107.7,160.05L122.55,201.8L126.26,212.66L148.55,276.91L152.26,286.77L163.4,313.55L167.11,321.39L174.54,335.34L178.25,341.39L185.68,351.71L189.4,355.01L196.82,362.27L200.54,362.62L204.25,365.34L207.96,366.73L211.68,368.77L215.39,366.26L219.1,365.54L222.82,366.57L226.53,366.51L230.25,367.98L237.67,367.68L241.39,366.02L252.53,368.2L256.24,366.82L263.67,366.59L267.38,366.72L271.1,365.79L274.81,365.71L282.24,365.38L285.95,364.16L289.66,363.03L293.38,360.94L311.95,360.03L315.66,359.63L341.65,356.61L345.37,355.06L367.65,353.33" style="vector-effect: none; fill: none; stroke: rgb(0, 100, 80); stroke-opacity: 1; stroke-width: 2px; opacity: 1;"/></g><g class="points"/><g class="text"/></g><g class="trace scatter trace2a52b6" style="stroke-miterlimit: 2; opacity: 1;"><g class="fills"><g><path class="js-fill" d="M0,21L14.85,27.28L18.57,29.22L29.71,36.1L33.42,38.79L44.56,48.23L48.28,51.87L59.42,64.37L63.13,69.09L74.27,85.27L77.99,91.43L89.13,112.39L92.84,120.21L103.98,146.06L107.7,155.55L122.55,196.12L126.26,206.67L155.97,290.75L159.69,299.85L170.83,324.35L174.54,331.14L181.97,342.67L185.68,347.51L189.4,345.54L193.11,350.09L200.54,357.14L204.25,360.47L207.96,355.97L211.68,359.22L215.39,354.47L219.1,357.38L226.53,361.74L230.25,363.44L233.96,361.02L237.67,359.99L241.39,356.53L245.1,358.39L252.53,361.1L256.24,362.02L267.38,363.68L271.1,361.59L278.52,362.72L282.24,362.36L285.95,359.46L289.66,359.36L293.38,352.42L297.09,353.81L308.23,356.88L311.95,357.21L326.8,353.95L330.51,353.21L349.08,350.92L352.8,350.5L367.65,349.14L367.65,357.03L352.8,357.92L349.08,358.05L345.37,358.21L341.65,362.82L315.66,364.95L311.95,365.1L293.38,364.69L289.66,368.24L267.38,371.35L263.67,371.66L248.81,372.43L245.1,371.86L241.39,371.23L237.67,373.6L233.96,372.92L230.25,373.59L222.82,371.43L219.1,373.07L215.39,373.4L211.68,372.17L200.54,366.56L196.82,368.48L189.4,361.79L185.68,357.72L178.25,347.79L174.54,341.86L167.11,328.22L163.4,320.52L152.26,293.9L148.55,284L133.69,240.91L129.98,229.66L111.41,174.82L107.7,164.54L92.84,126.59L89.13,118.08L77.99,95.28L74.27,88.54L63.13,70.79L59.42,65.69L48.28,52.42L44.56,48.64L33.42,38.96L29.71,36.24L18.57,29.3L14.85,27.34L3.71,22.38L0,21Z" style="fill: rgb(0, 100, 80); fill-opacity: 0.2; stroke-width: 0;"/></g></g><g class="errorbars"/><g class="lines"><path class="js-line" d="M0,21L14.85,27.28L18.57,29.22L29.71,36.1L33.42,38.79L44.56,48.23L48.28,51.87L59.42,64.37L63.13,69.09L74.27,85.27L77.99,91.43L89.13,112.39L92.84,120.21L103.98,146.06L107.7,155.55L122.55,196.12L126.26,206.67L155.97,290.75L159.69,299.85L170.83,324.35L174.54,331.14L181.97,342.67L185.68,347.51L189.4,345.54L193.11,350.09L200.54,357.14L204.25,360.47L207.96,355.97L211.68,359.22L215.39,354.47L219.1,357.38L226.53,361.74L230.25,363.44L233.96,361.02L237.67,359.99L241.39,356.53L245.1,358.39L252.53,361.1L256.24,362.02L267.38,363.68L271.1,361.59L278.52,362.72L282.24,362.36L285.95,359.46L289.66,359.36L293.38,352.42L297.09,353.81L308.23,356.88L311.95,357.21L326.8,353.95L330.51,353.21L349.08,350.92L352.8,350.5L367.65,349.14L367.65,357.03L352.8,357.92L349.08,358.05L345.37,358.21L341.65,362.82L315.66,364.95L311.95,365.1L293.38,364.69L289.66,368.24L267.38,371.35L263.67,371.66L248.81,372.43L245.1,371.86L241.39,371.23L237.67,373.6L233.96,372.92L230.25,373.59L222.82,371.43L219.1,373.07L215.39,373.4L211.68,372.17L200.54,366.56L196.82,368.48L189.4,361.79L185.68,357.72L178.25,347.79L174.54,341.86L167.11,328.22L163.4,320.52L152.26,293.9L148.55,284L133.69,240.91L129.98,229.66L111.41,174.82L107.7,164.54L92.84,126.59L89.13,118.08L77.99,95.28L74.27,88.54L63.13,70.79L59.42,65.69L48.28,52.42L44.56,48.64L33.42,38.96L29.71,36.24L18.57,29.3L14.85,27.34L3.71,22.38L0,21" style="vector-effect: none; fill: none; stroke: rgb(255, 255, 255); stroke-opacity: 0; stroke-width: 2px; opacity: 1;"/></g><g class="points"/><g class="text"/></g><g class="trace scatter tracefc748f" style="stroke-miterlimit: 2; opacity: 1;"><g class="fills"/><g class="errorbars"/><g class="lines"><path class="js-line" d="M0,21L11.14,25.58L14.85,27.42L26,34.16L29.71,36.87L40.85,46.66L44.56,50.56L51.99,59.48L55.7,64.55L63.13,76.05L66.85,82.53L74.27,97.06L77.99,105.16L89.13,132.92L92.84,143.33L103.98,177.79L107.7,190.22L129.98,269.58L133.69,282.67L144.83,319.5L148.55,330.67L159.69,359.96L163.4,368.23L170.83,382.56L174.54,388.67L181.97,398.99L185.68,398.99L367.65,398.99" style="vector-effect: none; fill: none; stroke: rgb(252, 3, 65); stroke-opacity: 1; stroke-dasharray: 9px, 9px; stroke-width: 2px; opacity: 1;"/></g><g class="points"/><g class="text"/></g><g class="trace scatter trace9392fb" style="stroke-miterlimit: 2; opacity: 1;"><g class="fills"><g><path class="js-fill" d="M0,21L11.14,25.58L14.85,27.42L26,34.16L29.71,36.87L40.85,46.66L44.56,50.56L51.99,59.48L55.7,64.55L63.13,76.05L66.85,82.53L74.27,97.06L77.99,105.16L89.13,132.92L92.84,143.33L103.98,177.78L107.7,190.21L129.98,269.54L133.69,282.62L144.83,319.43L148.55,330.59L159.69,359.88L163.4,368.15L170.83,382.48L174.54,388.59L181.97,398.92L185.68,398.92L367.65,398.92L181.97,399L178.25,394.14L170.83,382.57L167.11,375.77L159.69,359.97L155.97,350.94L144.83,319.51L141.12,307.73L126.26,256.28L122.55,242.86L103.98,177.79L100.27,165.8L89.13,132.92L85.41,123.09L74.27,97.06L70.56,89.52L59.42,70.07L55.7,64.55L44.56,50.56L40.85,46.66L29.71,36.87L26,34.16L14.85,27.42L11.14,25.58L0,21Z" style="fill: rgb(252, 3, 65); fill-opacity: 0.2; stroke-width: 0;"/></g></g><g class="errorbars"/><g class="lines"><path class="js-line" d="M0,21L11.14,25.58L14.85,27.42L26,34.16L29.71,36.87L40.85,46.66L44.56,50.56L51.99,59.48L55.7,64.55L63.13,76.05L66.85,82.53L74.27,97.06L77.99,105.16L89.13,132.92L92.84,143.33L103.98,177.78L107.7,190.21L129.98,269.54L133.69,282.62L144.83,319.43L148.55,330.59L159.69,359.88L163.4,368.15L170.83,382.48L174.54,388.59L181.97,398.92L185.68,398.92L367.65,398.92L181.97,399L178.25,394.14L170.83,382.57L167.11,375.77L159.69,359.97L155.97,350.94L144.83,319.51L141.12,307.73L126.26,256.28L122.55,242.86L103.98,177.79L100.27,165.8L89.13,132.92L85.41,123.09L74.27,97.06L70.56,89.52L59.42,70.07L55.7,64.55L44.56,50.56L40.85,46.66L29.71,36.87L26,34.16L14.85,27.42L11.14,25.58L0,21" style="vector-effect: none; fill: none; stroke: rgb(255, 255, 255); stroke-opacity: 0; stroke-width: 2px; opacity: 1;"/></g><g class="points"/><g class="text"/></g></g></g><g class="overplot"/><path class="xlines-above crisp" d="M0,0" style="fill: none;"/><path class="ylines-above crisp" d="M0,0" style="fill: none;"/><g class="overlines-above"/><g class="xaxislayer-above"><g class="x2tick"><text text-anchor="middle" x="0" y="541" transform="translate(529.35,0)" style="font-family: 'Times New Roman'; font-size: 20px; fill: rgb(42, 63, 95); fill-opacity: 1; white-space: pre; opacity: 1;">0</text></g><g class="x2tick"><text text-anchor="middle" x="0" y="541" style="font-family: 'Times New Roman'; font-size: 20px; fill: rgb(42, 63, 95); fill-opacity: 1; white-space: pre; opacity: 1;" transform="translate(603.62,0)">20</text></g><g class="x2tick"><text text-anchor="middle" x="0" y="541" style="font-family: 'Times New Roman'; font-size: 20px; fill: rgb(42, 63, 95); fill-opacity: 1; white-space: pre; opacity: 1;" transform="translate(677.9000000000001,0)">40</text></g><g class="x2tick"><text text-anchor="middle" x="0" y="541" style="font-family: 'Times New Roman'; font-size: 20px; fill: rgb(42, 63, 95); fill-opacity: 1; white-space: pre; opacity: 1;" transform="translate(752.1700000000001,0)">60</text></g><g class="x2tick"><text text-anchor="middle" x="0" y="541" style="font-family: 'Times New Roman'; font-size: 20px; fill: rgb(42, 63, 95); fill-opacity: 1; white-space: pre; opacity: 1;" transform="translate(826.44,0)">80</text></g></g><g class="yaxislayer-above"><g class="y2tick"><text text-anchor="end" x="528.35" y="7" transform="translate(0,452)" style="font-family: 'Times New Roman'; font-size: 20px; fill: rgb(42, 63, 95); fill-opacity: 1; white-space: pre; opacity: 1;">1</text></g><g class="y2tick"><text text-anchor="end" x="528.35" y="7" style="font-family: 'Times New Roman'; font-size: 20px; fill: rgb(42, 63, 95); fill-opacity: 1; white-space: pre; opacity: 1;" transform="translate(0,369.25)">2</text></g><g class="y2tick"><text text-anchor="end" x="528.35" y="7" style="font-family: 'Times New Roman'; font-size: 20px; fill: rgb(42, 63, 95); fill-opacity: 1; white-space: pre; opacity: 1;" transform="translate(0,286.5)">3</text></g><g class="y2tick"><text text-anchor="end" x="528.35" y="7" style="font-family: 'Times New Roman'; font-size: 20px; fill: rgb(42, 63, 95); fill-opacity: 1; white-space: pre; opacity: 1;" transform="translate(0,203.75)">4</text></g><g class="y2tick"><text text-anchor="end" x="528.35" y="7" style="font-family: 'Times New Roman'; font-size: 20px; fill: rgb(42, 63, 95); fill-opacity: 1; white-space: pre; opacity: 1;" transform="translate(0,121)">5</text></g></g><g class="overaxes-above"/></g></g><g class="polarlayer"/><g class="smithlayer"/><g class="ternarylayer"/><g class="geolayer"/><g class="funnelarealayer"/><g class="pielayer"/><g class="iciclelayer"/><g class="treemaplayer"/><g class="sunburstlayer"/><g class="glimages"/><defs id="topdefs-63934f"><g class="clips"/><clipPath id="legend63934f"><rect width="275" height="68" x="0" y="0"/></clipPath></defs><g class="layer-above"><g class="imagelayer"/><g class="shapelayer"/></g><g class="infolayer"><g class="legend" pointer-events="all" transform="translate(913.34,100)"><rect class="bg" shape-rendering="crispEdges" width="275" height="68" x="0" y="0" style="stroke: rgb(68, 68, 68); stroke-opacity: 1; fill: rgb(255, 255, 255); fill-opacity: 1; stroke-width: 0px;"/><g class="scrollbox" transform="" clip-path="url(#legend63934f)"><g class="groups"><g class="traces" transform="translate(0,19.5)" style="opacity: 1;"><text class="legendtext" text-anchor="start" x="40" y="7.8" style="font-family: 'Times New Roman'; font-size: 20px; fill: rgb(42, 63, 95); fill-opacity: 1; white-space: pre;">Trained Agent</text><g class="layers" style="opacity: 1;"><g class="legendfill"/><g class="legendlines"><path class="js-line" d="M5,0h30" style="fill: none; stroke: rgb(0, 100, 80); stroke-opacity: 1; stroke-width: 2px;"/></g><g class="legendsymbols"><g class="legendpoints"/></g></g><rect class="legendtoggle" x="0" y="-14.5" width="269.671875" height="29" style="fill: rgb(0, 0, 0); fill-opacity: 0;"/></g><g class="traces" transform="translate(0,48.5)" style="opacity: 1;"><text class="legendtext" text-anchor="start" x="40" y="7.8" style="font-family: 'Times New Roman'; font-size: 20px; fill: rgb(42, 63, 95); fill-opacity: 1; white-space: pre;">No Xylanase Agent (DFBA)</text><g class="layers" style="opacity: 1;"><g class="legendfill"/><g class="legendlines"><path class="js-line" d="M5,0h30" style="fill: none; stroke: rgb(252, 3, 65); stroke-opacity: 1; stroke-dasharray: 9px, 9px; stroke-width: 2px;"/></g><g class="legendsymbols"><g class="legendpoints"/></g></g><rect class="legendtoggle" x="0" y="-14.5" width="269.671875" height="29" style="fill: rgb(0, 0, 0); fill-opacity: 0;"/></g></g></g><rect class="scrollbar" rx="20" ry="3" width="0" height="0" x="0" y="0" style="fill: rgb(128, 139, 164); fill-opacity: 1;"/></g><g class="g-gtitle"/><g class="g-xtitle"><text class="xtitle" x="263.82500000000005" y="576.8" text-anchor="middle" style="font-family: 'Times New Roman'; font-size: 24px; fill: rgb(42, 63, 95); opacity: 1; font-weight: normal; white-space: pre;">Time (h)</text></g><g class="g-x2title"><text class="x2title" x="713.175" y="576.8" text-anchor="middle" style="font-family: 'Times New Roman'; font-size: 24px; fill: rgb(42, 63, 95); opacity: 1; font-weight: normal; white-space: pre;">Time (h)</text></g><g class="g-ytitle" transform="translate(8.7998046875,0)"><text class="ytitle" transform="rotate(-90,12.700000000000003,310)" x="12.700000000000003" y="310" text-anchor="middle" style="font-family: 'Times New Roman'; font-size: 24px; fill: rgb(42, 63, 95); opacity: 1; font-weight: normal; white-space: pre;">Cell Concentration</text></g><g class="g-y2title"><text class="y2title" transform="rotate(-90,487.04375,310)" x="487.04375" y="310" text-anchor="middle" style="font-family: 'Times New Roman'; font-size: 24px; fill: rgb(42, 63, 95); opacity: 1; font-weight: normal; white-space: pre;">Xylose Concentration</text></g><g class="annotation" data-index="0" style="opacity: 1;"><g class="annotation-text-g" transform="rotate(0,263.82500000000005,89)"><g class="cursor-pointer" transform="translate(201,78)"><rect class="bg" x="0.5" y="0.5" width="124" height="21" style="stroke-width: 1px; stroke: rgb(0, 0, 0); stroke-opacity: 0; fill: rgb(0, 0, 0); fill-opacity: 0;"/><text class="annotation-text" text-anchor="middle" x="62.65625" y="16.5" style="font-family: 'Times New Roman'; font-size: 16px; fill: rgb(42, 63, 95); fill-opacity: 1; white-space: pre;">Cell Concentration</text></g></g></g><g class="annotation" data-index="1" style="opacity: 1;"><g class="annotation-text-g" transform="rotate(0,713.1750000000001,89)"><g class="cursor-pointer" transform="translate(641,78)"><rect class="bg" x="0.5" y="0.5" width="143" height="21" style="stroke-width: 1px; stroke: rgb(0, 0, 0); stroke-opacity: 0; fill: rgb(0, 0, 0); fill-opacity: 0;"/><text class="annotation-text" text-anchor="middle" x="71.984375" y="16.5" style="font-family: 'Times New Roman'; font-size: 16px; fill: rgb(42, 63, 95); fill-opacity: 1; white-space: pre;">Xylose Concentration</text></g></g></g></g></svg>