<svg class="main-svg" xmlns="http://www.w3.org/2000/svg" xmlns:xlink="http://www.w3.org/1999/xlink" width="700" height="500" style="" viewBox="0 0 700 500"><rect x="0" y="0" width="700" height="500" style="fill: rgb(255, 255, 255); fill-opacity: 1;"/><defs id="defs-13b3f3"><g class="clips"><clipPath id="clip13b3f3xyplot" class="plotclip"><rect width="511" height="320"/></clipPath><clipPath class="axesclip" id="clip13b3f3x"><rect x="80" y="0" width="511" height="500"/></clipPath><clipPath class="axesclip" id="clip13b3f3y"><rect x="0" y="100" width="700" height="320"/></clipPath><clipPath class="axesclip" id="clip13b3f3xy"><rect x="80" y="100" width="511" height="320"/></clipPath></g><g class="gradients"/><g class="patterns"/></defs><g class="bglayer"><rect class="bg" x="80" y="100" width="511" height="320" style="fill: rgb(229, 236, 246); fill-opacity: 1; stroke-width: 0;"/></g><g class="layer-below"><g class="imagelayer"/><g class="shapelayer"/></g><g class="cartesianlayer"><g class="subplot xy"><g class="layer-subplot"><g class="shapelayer"/><g class="imagelayer"/></g><g class="minor-gridlayer"><g class="x"/><g class="y"/></g><g class="gridlayer"><g class="x"><path class="xgrid crisp" transform="translate(182.22,0)" d="M0,100v320" style="stroke: rgb(255, 255, 255); stroke-opacity: 1; stroke-width: 1px;"/><path class="xgrid crisp" transform="translate(284.44,0)" d="M0,100v320" style="stroke: rgb(255, 255, 255); stroke-opacity: 1; stroke-width: 1px;"/><path class="xgrid crisp" transform="translate(386.66,0)" d="M0,100v320" style="stroke: rgb(255, 255, 255); stroke-opacity: 1; stroke-width: 1px;"/><path class="xgrid crisp" transform="translate(488.88,0)" d="M0,100v320" style="stroke: rgb(255, 255, 255); stroke-opacity: 1; stroke-width: 1px;"/></g><g class="y"><path class="ygrid crisp" transform="translate(0,404)" d="M80,0h511" style="stroke: rgb(255, 255, 255); stroke-opacity: 1; stroke-width: 1px;"/><path class="ygrid crisp" transform="translate(0,346.83000000000004)" d="M80,0h511" style="stroke: rgb(255, 255, 255); stroke-opacity: 1; stroke-width: 1px;"/><path class="ygrid crisp" transform="translate(0,289.66999999999996)" d="M80,0h511" style="stroke: rgb(255, 255, 255); stroke-opacity: 1; stroke-width: 1px;"/><path class="ygrid crisp" transform="translate(0,232.5)" d="M80,0h511" style="stroke: rgb(255, 255, 255); stroke-opacity: 1; stroke-width: 1px;"/><path class="ygrid crisp" transform="translate(0,175.34)" d="M80,0h511" style="stroke: rgb(255, 255, 255); stroke-opacity: 1; stroke-width: 1px;"/></g></g><g class="zerolinelayer"><path class="xzl zl crisp" transform="translate(80,0)" d="M0,100v320" style="stroke: rgb(255, 255, 255); stroke-opacity: 1; stroke-width: 2px;"/><path class="yzl zl crisp" transform="translate(0,118.17)" d="M80,0h511" style="stroke: rgb(255, 255, 255); stroke-opacity: 1; stroke-width: 2px;"/></g><path class="xlines-below"/><path class="ylines-below"/><g class="overlines-below"/><g class="xaxislayer-below"/><g class="yaxislayer-below"/><g class="overaxes-below"/><g class="plot" transform="translate(80,100)" clip-path="url(#clip13b3f3xyplot)"><g class="scatterlayer mlayer"><g class="trace scatter trace67954d" style="stroke-miterlimit: 2; opacity: 1;"><g class="fills"/><g class="errorbars"/><g class="lines"><path class="js-line" d="M0,303.71L1.74,303.86L1.84,303.64L2.66,303.79L2.76,303.57L3.07,303.57L3.17,303.36L3.27,302.93L4.19,303.71L4.29,303.79L5.01,302.93L5.32,303.43L5.42,303.71L6.34,303.5L6.44,303.86L6.54,303.93L7.26,303.14L7.36,303.79L7.67,303.07L8.18,303.5L8.28,303.86L9.51,302.57L9.61,303.43L10.63,301.93L10.73,302L11.55,301.14L11.65,300.64L11.76,301.5L12.06,300.28L12.16,300.28L12.27,299.57L12.57,300L14.62,291.57L14.72,289.49L16.15,270.77L16.25,271.48L16.36,266.2L16.46,266.84L16.56,265.27L16.66,262.48L20.24,142.77L20.34,134.62L21.26,106.39L21.36,100.25L21.67,93.24L21.77,88.88L21.88,90.81L22.08,85.24L22.18,90.45L22.28,83.31L23.1,70.58L23.2,71.37L23.31,68.87L25.66,39.21L25.76,39.49L27.09,30.56L27.19,31.63L28.42,25.06L28.52,25.49L28.62,25.56L28.72,26.84L29.24,24.98L29.34,25.2L29.44,23.55L29.54,25.27L29.85,21.91L30.16,23.91L30.26,23.41L30.56,22.2L30.67,24.41L30.87,22.34L30.97,21.55L31.59,21.69L31.69,20.77L31.99,20.41L32.4,22.19L32.51,20.48L32.61,20.76L32.81,19.76L33.02,20.33L33.12,19.83L33.94,19.84L34.04,19.55L34.75,18.76L34.96,18.84L35.06,18.91L35.27,19.19L36.08,18.48L36.19,18.77L37.11,18.48L37.21,18.48L37.62,18.27L37.72,18.63L37.92,18.48L38.03,18.41L38.43,18.84L38.74,18.56L38.84,18.41L39.56,18.7L39.66,18.56L39.76,18.34L40.17,18.7L40.58,18.41L40.68,18.27L41.6,18.63L41.71,18.41L41.81,18.2L42.22,18.63L42.63,18.48L42.73,18.19L44.67,18.27L44.77,18.34L46.2,18.13L46.31,18.27L48.66,18.2L48.76,18.27L49.88,18.2L49.99,18.34L50.91,18.12L51.01,18.12L52.44,18.33L52.54,18.19L54.79,18.18L54.89,18.1L55.61,18.18L55.71,18.11L55.81,18.11L57.24,18.25L57.35,18.18L71.86,18.1L71.96,18.17L74.52,18.09L74.62,18.09L353.68,17.51L353.78,17.5L452.84,16.84L452.94,16.82L506.4,16.07L506.5,16.06L511,16.03" style="vector-effect: none; fill: none; stroke: rgb(31, 119, 180); stroke-opacity: 1; stroke-width: 2px; opacity: 1;"/></g><g class="points"/><g class="text"/></g><g class="trace scatter trace923c10" style="stroke-miterlimit: 2; opacity: 1;"><g class="fills"><g><path class="js-fill" d="M0,303.43L0.61,303.71L0.72,303.43L0.82,303.43L1.02,303.71L1.23,302.86L1.43,303.43L1.53,303.14L2.66,303.71L2.76,303.14L3.07,303.43L3.17,302.57L3.37,302.86L3.48,302.86L4.4,303.43L4.5,303.14L4.8,303.43L5.01,302.28L5.11,303.14L5.21,303.43L6.13,302.86L6.24,302.86L6.85,303.71L7.05,303.43L7.16,303.43L7.36,303.71L7.97,302.57L8.08,302.86L8.28,303.71L8.89,303.14L9,302.86L9.51,302L9.61,303.14L9.81,302.57L9.92,302.57L10.84,301.14L10.94,300.57L11.14,302L11.24,300L11.35,300.86L11.45,300.57L11.65,298.85L11.76,301.43L12.68,297.14L12.78,297.71L13.6,293.71L13.7,294L13.8,295.71L15.33,280.27L15.44,281.13L20.04,149.35L20.14,137.91L20.24,137.34L20.34,128.76L21.06,102.75L21.26,103.6L21.36,92.74L21.47,95.89L21.77,87.6L21.88,88.17L21.98,82.16L22.18,86.45L24.64,45.29L24.74,47.86L25.66,37.28L25.76,36.71L26.48,30.99L26.78,31.85L26.88,33.27L27.91,24.41L28.01,24.7L28.11,26.41L28.52,23.27L28.72,25.27L28.83,24.13L29.03,24.99L29.85,20.69L29.95,22.12L30.05,22.13L30.36,23.84L30.46,22.69L30.56,21.27L30.67,23.55L31.18,20.12L31.28,20.98L31.38,20.98L31.59,21.26L31.69,19.84L31.99,20.12L32.1,20.97L32.81,18.12L32.91,19.27L33.02,19.83L33.32,18.4L33.83,19.27L33.94,19.27L34.86,18.12L34.96,18.41L35.27,18.98L35.67,18.12L35.78,18.7L36.49,18.12L36.59,18.4L36.7,18.41L37.51,18.12L37.62,18.12L47.53,18.13L47.63,18.13L337.02,17.64L337.12,17.63L350.92,17.55L351.03,17.54L363.7,17.43L363.8,17.42L459.38,16.68L459.48,16.67L466.02,16.55L466.13,16.53L483.91,16.38L484.01,16.39L511,16.03L454.68,16.75L454.57,16.77L442.82,16.92L442.72,16.94L354.4,17.5L354.3,17.79L353.48,17.52L353.38,17.52L259.23,18.2L259.13,18.48L258.31,17.91L258.21,17.92L257.6,18.49L257.49,17.92L257.39,17.92L256.88,18.49L256.68,18.21L256.57,17.93L56.73,18.4L56.63,18.97L55.81,18.11L55.71,18.11L55.4,18.68L54.99,18.39L54.89,18.11L53.97,18.67L53.87,18.11L53.05,18.98L52.95,18.12L52.34,18.69L52.13,18.12L52.03,18.12L51.62,18.69L51.21,18.4L51.11,18.4L50.29,18.13L50.19,18.41L49.78,18.13L49.68,18.7L49.47,18.42L49.37,18.42L49.27,18.7L49.17,18.13L48.66,18.41L48.55,18.41L43.85,18.41L43.75,18.98L42.93,18.13L42.83,18.41L42.11,19.55L42.01,18.41L41.09,18.98L40.99,18.7L40.68,18.41L40.38,18.7L40.27,18.98L39.76,18.7L39.46,18.99L39.35,19.27L38.64,18.42L38.54,19.27L38.43,19.27L37.62,18.41L37.51,18.98L37.31,19.84L36.8,18.41L36.7,19.26L36.39,18.41L36.19,19.55L35.98,18.98L35.88,19.55L35.47,18.69L35.27,19.84L35.16,19.56L35.06,19.55L34.86,20.12L34.75,18.98L34.35,19.55L34.24,20.12L33.94,20.7L33.73,19.55L33.63,20.69L33.32,21.27L33.22,20.41L33.02,20.97L32.91,21.26L32.4,24.12L32.3,20.97L31.99,20.69L31.79,23.55L31.38,22.41L31.28,21.27L30.67,26.41L30.36,25.27L30.26,23.84L29.85,23.27L29.54,26.99L29.44,24.98L28.83,29.27L28.62,27.27L28.52,26.99L28.42,26.13L28.32,30.7L27.91,28.13L27.8,30.41L27.5,31.56L27.4,29.85L27.29,31.85L27.09,31.56L26.58,40.42L26.48,36.13L26.37,34.99L25.35,47L25.25,44.43L24.02,63.59L23.92,61.01L22.69,84.45L22.49,83.02L22.39,78.45L21.47,108.18L21.36,105.32L21.26,108.47L19.32,186.51L19.22,185.37L19.12,177.65L18.09,222.82L17.99,229.39L17.89,225.96L17.79,238.54L17.68,235.68L17.58,242.54L15.84,280.27L15.74,285.99L15.54,282.28L15.13,289.99L15.03,285.42L14.92,289.42L14,296.85L13.9,296L13.08,300.86L12.98,300.57L12.88,297.43L11.86,302.28L11.76,301.71L10.32,303.14L10.22,302.57L9.3,304L9.2,303.71L0,304Z" style="fill: rgb(31, 119, 180); fill-opacity: 0.2; stroke-width: 0;"/></g></g><g class="errorbars"/><g class="lines"><path class="js-line" d="M0,303.43L0.61,303.71L0.72,303.43L0.82,303.43L1.02,303.71L1.23,302.86L1.43,303.43L1.53,303.14L2.66,303.71L2.76,303.14L3.07,303.43L3.17,302.57L3.37,302.86L3.48,302.86L4.4,303.43L4.5,303.14L4.8,303.43L5.01,302.28L5.11,303.14L5.21,303.43L6.13,302.86L6.24,302.86L6.85,303.71L7.05,303.43L7.16,303.43L7.36,303.71L7.97,302.57L8.08,302.86L8.28,303.71L8.89,303.14L9,302.86L9.51,302L9.61,303.14L9.81,302.57L9.92,302.57L10.84,301.14L10.94,300.57L11.14,302L11.24,300L11.35,300.86L11.45,300.57L11.65,298.85L11.76,301.43L12.68,297.14L12.78,297.71L13.6,293.71L13.7,294L13.8,295.71L15.33,280.27L15.44,281.13L20.04,149.35L20.14,137.91L20.24,137.34L20.34,128.76L21.06,102.75L21.26,103.6L21.36,92.74L21.47,95.89L21.77,87.6L21.88,88.17L21.98,82.16L22.18,86.45L24.64,45.29L24.74,47.86L25.66,37.28L25.76,36.71L26.48,30.99L26.78,31.85L26.88,33.27L27.91,24.41L28.01,24.7L28.11,26.41L28.52,23.27L28.72,25.27L28.83,24.13L29.03,24.99L29.85,20.69L29.95,22.12L30.05,22.13L30.36,23.84L30.46,22.69L30.56,21.27L30.67,23.55L31.18,20.12L31.28,20.98L31.38,20.98L31.59,21.26L31.69,19.84L31.99,20.12L32.1,20.97L32.81,18.12L32.91,19.27L33.02,19.83L33.32,18.4L33.83,19.27L33.94,19.27L34.86,18.12L34.96,18.41L35.27,18.98L35.67,18.12L35.78,18.7L36.49,18.12L36.59,18.4L36.7,18.41L37.51,18.12L37.62,18.12L47.53,18.13L47.63,18.13L337.02,17.64L337.12,17.63L350.92,17.55L351.03,17.54L363.7,17.43L363.8,17.42L459.38,16.68L459.48,16.67L466.02,16.55L466.13,16.53L483.91,16.38L484.01,16.39L511,16.03L454.68,16.75L454.57,16.77L442.82,16.92L442.72,16.94L354.4,17.5L354.3,17.79L353.48,17.52L353.38,17.52L259.23,18.2L259.13,18.48L258.31,17.91L258.21,17.92L257.6,18.49L257.49,17.92L257.39,17.92L256.88,18.49L256.68,18.21L256.57,17.93L56.73,18.4L56.63,18.97L55.81,18.11L55.71,18.11L55.4,18.68L54.99,18.39L54.89,18.11L53.97,18.67L53.87,18.11L53.05,18.98L52.95,18.12L52.34,18.69L52.13,18.12L52.03,18.12L51.62,18.69L51.21,18.4L51.11,18.4L50.29,18.13L50.19,18.41L49.78,18.13L49.68,18.7L49.47,18.42L49.37,18.42L49.27,18.7L49.17,18.13L48.66,18.41L48.55,18.41L43.85,18.41L43.75,18.98L42.93,18.13L42.83,18.41L42.11,19.55L42.01,18.41L41.09,18.98L40.99,18.7L40.68,18.41L40.38,18.7L40.27,18.98L39.76,18.7L39.46,18.99L39.35,19.27L38.64,18.42L38.54,19.27L38.43,19.27L37.62,18.41L37.51,18.98L37.31,19.84L36.8,18.41L36.7,19.26L36.39,18.41L36.19,19.55L35.98,18.98L35.88,19.55L35.47,18.69L35.27,19.84L35.16,19.56L35.06,19.55L34.86,20.12L34.75,18.98L34.35,19.55L34.24,20.12L33.94,20.7L33.73,19.55L33.63,20.69L33.32,21.27L33.22,20.41L33.02,20.97L32.91,21.26L32.4,24.12L32.3,20.97L31.99,20.69L31.79,23.55L31.38,22.41L31.28,21.27L30.67,26.41L30.36,25.27L30.26,23.84L29.85,23.27L29.54,26.99L29.44,24.98L28.83,29.27L28.62,27.27L28.52,26.99L28.42,26.13L28.32,30.7L27.91,28.13L27.8,30.41L27.5,31.56L27.4,29.85L27.29,31.85L27.09,31.56L26.58,40.42L26.48,36.13L26.37,34.99L25.35,47L25.25,44.43L24.02,63.59L23.92,61.01L22.69,84.45L22.49,83.02L22.39,78.45L21.47,108.18L21.36,105.32L21.26,108.47L19.32,186.51L19.22,185.37L19.12,177.65L18.09,222.82L17.99,229.39L17.89,225.96L17.79,238.54L17.68,235.68L17.58,242.54L15.84,280.27L15.74,285.99L15.54,282.28L15.13,289.99L15.03,285.42L14.92,289.42L14,296.85L13.9,296L13.08,300.86L12.98,300.57L12.88,297.43L11.86,302.28L11.76,301.71L10.32,303.14L10.22,302.57L9.3,304L9.2,303.71L0,304" style="vector-effect: none; fill: none; stroke: rgb(255, 255, 255); stroke-opacity: 0; stroke-width: 2px; opacity: 1;"/></g><g class="points"/><g class="text"/></g><g class="trace scatter trace034557" style="stroke-miterlimit: 2; opacity: 1;"><g class="fills"/><g class="errorbars"/><g class="lines"><path class="js-line" d="M0,85.91L0.1,90.84L0.51,79.7L0.61,77.62L0.72,79.34L0.92,74.19L1.02,71.26L1.43,60.33L1.53,54.97L1.74,56.83L1.94,51.9L2.04,53.69L2.15,51.97L2.86,41.11L3.17,41.54L3.27,41.54L3.37,43.54L3.88,40.18L3.99,37.25L4.09,37.89L4.19,36.46L4.29,34.25L4.4,33.82L4.5,37.11L5.42,30.53L5.52,31.11L6.34,25.32L6.54,25.82L6.64,26.6L7.77,22.96L7.87,23.39L8.69,22.1L9,22.53L9.1,21.1L9.3,21.82L9.51,20.46L9.61,20.03L10.12,21.46L10.43,20.96L10.53,20.67L10.63,21.6L10.94,20.32L11.14,21.17L11.24,20.03L11.45,19.67L11.55,20.67L11.96,20.39L12.06,19.96L12.47,20.96L12.78,20.03L12.88,19.67L12.98,20.1L13.19,19.17L13.6,19.89L13.7,19.74L14.11,20.32L14.41,18.89L14.52,19.24L14.62,19.81L15.23,19.1L15.44,19.67L15.54,19.81L15.74,20.53L16.15,19.46L16.25,19.74L16.36,19.6L17.58,18.67L17.68,18.67L18.09,18.46L18.5,19.1L18.6,19.17L19.42,18.67L19.63,19.02L19.73,19.17L20.96,18.45L21.06,18.74L21.26,18.36L21.36,18.87L21.77,18.58L21.88,18.38L22.69,18.6L22.8,18.3L23.1,18.88L23.51,18.43L23.61,18.22L24.64,18.38L24.74,18.23L25.66,18.43L25.76,18.3L27.4,18.46L27.5,18.59L27.91,18.21L28.21,18.45L28.32,18.58L29.13,18.24L29.24,18.38L30.36,18.31L30.46,18.14L32.51,18.45L32.61,18.16L34.75,18.24L34.86,18.17L334.57,17.71L334.67,17.7L445.27,16.97L445.37,16.96L470.52,16.5L470.62,16.51L476.65,16.4L476.76,16.4L491.48,16.39L491.58,16.37L511,16.07" style="vector-effect: none; fill: none; stroke: rgb(255, 127, 14); stroke-opacity: 1; stroke-width: 2px; opacity: 1;"/></g><g class="points"/><g class="text"/></g><g class="trace scatter trace3f0aa2" style="stroke-miterlimit: 2; opacity: 1;"><g class="fills"><g><path class="js-fill" d="M0,83.63L0.1,87.34L0.51,75.05L0.61,74.48L1.23,61.9L1.33,59.05L2.96,40.18L3.07,39.32L3.37,43.04L3.99,36.18L4.09,35.61L4.91,28.75L5.01,31.03L5.11,31.61L5.21,29.6L5.32,29.89L5.42,27.6L5.52,29.6L5.93,24.75L6.03,25.6L6.13,26.46L6.24,27.32L6.34,23.03L6.64,24.75L6.75,24.75L7.87,21.32L7.97,21.89L8.18,20.17L8.79,21.32L8.89,20.74L9,21.89L9.2,19.89L9.51,20.17L9.61,19.6L9.71,19.31L9.81,20.46L10.02,19.89L10.12,20.74L10.22,21.03L10.43,20.17L10.53,19.6L10.73,21.03L11.24,19.6L11.35,19.6L11.96,19.89L12.06,19.03L12.16,19.31L12.27,19.6L12.47,20.17L13.29,18.74L13.39,19.03L13.6,19.6L13.9,18.46L14.11,19.03L14.21,18.74L14.52,18.46L14.62,19.31L14.92,19.03L15.03,19.6L15.23,18.46L15.64,19.89L15.84,19.31L15.95,18.74L16.05,19.6L16.15,18.46L16.66,19.03L16.76,19.03L17.58,18.17L17.68,18.46L19.01,18.17L19.12,19.03L19.93,18.46L20.04,18.74L21.06,18.16L21.16,18.46L21.88,18.17L21.98,18.45L22.8,18.16L22.9,18.17L23.51,18.39L23.72,18.15L23.82,18.17L24.74,18.17L24.84,18.09L26.78,18.16L26.88,18.04L27.5,18.45L27.8,18.16L27.91,18.06L32.81,18.17L32.91,18.12L48.96,18.17L49.07,18.17L378.42,17.43L378.52,17.41L392.94,17.35L393.04,17.34L405.82,17.23L405.92,17.22L422.48,17.14L422.58,17.14L435.56,17.04L435.66,17.04L458.56,16.69L458.66,16.71L468.37,16.52L468.48,16.53L485.24,16.44L485.34,16.44L511,16.05L454.57,16.79L454.47,16.81L443.74,17L443.64,17.02L319.64,17.74L319.54,17.75L77.28,18.17L77.18,18.74L76.36,18.17L76.26,18.16L75.34,18.16L75.23,18.17L32.61,18.17L32.51,19.03L32.3,18.17L31.69,18.46L31.59,18.31L31.48,19.03L31.08,18.17L30.77,18.74L30.67,18.46L30.46,18.17L30.36,18.74L30.05,18.74L29.95,19.01L29.13,18.46L29.03,18.74L28.42,18.45L28.32,19.02L27.4,18.46L27.29,18.74L26.58,18.17L26.37,18.45L26.27,18.46L26.17,18.17L25.76,18.46L25.66,19.03L24.94,18.17L24.84,18.74L24.33,18.46L24.12,18.74L24.02,19.03L23.41,18.46L23.31,19.31L23.2,18.74L23.1,19.6L23,18.45L22.39,19.31L22.28,18.46L21.47,19.59L21.36,19.31L20.65,18.74L20.55,19.31L20.24,19.03L19.93,20.45L19.63,20.17L19.52,19.89L19.42,18.74L19.01,21.03L18.81,19.6L18.71,20.74L18.09,18.74L17.99,19.31L17.89,19.89L17.79,20.17L17.68,19.03L17.28,19.89L17.17,19.6L16.56,20.74L16.36,20.17L16.25,20.74L15.95,19.89L15.74,21.32L15.44,20.17L15.33,19.89L14.92,21.03L14.62,20.46L14.52,19.89L14.41,19.31L14.11,21.6L14,20.17L13.9,20.74L13.49,21.03L13.39,19.31L13.08,20.17L12.98,21.03L12.47,21.89L12.27,20.17L12.16,21.03L11.86,22.17L11.55,21.89L11.45,19.89L10.63,22.46L10.53,21.89L10.22,21.32L9.92,22.46L9.81,21.89L9.71,21.32L9.61,20.46L9.3,23.32L9.1,22.46L9,23.6L8.69,23.03L8.48,24.17L8.28,23.32L8.18,24.17L7.97,25.03L7.67,23.6L7.56,23.89L6.75,30.46L6.44,29.6L6.34,26.75L5.32,34.75L5.21,32.75L5.01,32.18L3.88,43.61L3.78,42.47L3.68,43.32L3.37,44.75L3.27,42.47L3.17,44.47L3.07,45.61L2.96,46.18L2.86,41.61L1.84,62.19L1.74,61.62L1.64,60.47L1.53,56.47L1.23,72.19L1.12,76.48L1.02,75.34L0.82,80.2L0.72,82.77L0.61,80.2L0.31,88.49L0.2,90.49L0.1,93.34L0,89.63Z" style="fill: rgb(255, 127, 14); fill-opacity: 0.2; stroke-width: 0;"/></g></g><g class="errorbars"/><g class="lines"><path class="js-line" d="M0,83.63L0.1,87.34L0.51,75.05L0.61,74.48L1.23,61.9L1.33,59.05L2.96,40.18L3.07,39.32L3.37,43.04L3.99,36.18L4.09,35.61L4.91,28.75L5.01,31.03L5.11,31.61L5.21,29.6L5.32,29.89L5.42,27.6L5.52,29.6L5.93,24.75L6.03,25.6L6.13,26.46L6.24,27.32L6.34,23.03L6.64,24.75L6.75,24.75L7.87,21.32L7.97,21.89L8.18,20.17L8.79,21.32L8.89,20.74L9,21.89L9.2,19.89L9.51,20.17L9.61,19.6L9.71,19.31L9.81,20.46L10.02,19.89L10.12,20.74L10.22,21.03L10.43,20.17L10.53,19.6L10.73,21.03L11.24,19.6L11.35,19.6L11.96,19.89L12.06,19.03L12.16,19.31L12.27,19.6L12.47,20.17L13.29,18.74L13.39,19.03L13.6,19.6L13.9,18.46L14.11,19.03L14.21,18.74L14.52,18.46L14.62,19.31L14.92,19.03L15.03,19.6L15.23,18.46L15.64,19.89L15.84,19.31L15.95,18.74L16.05,19.6L16.15,18.46L16.66,19.03L16.76,19.03L17.58,18.17L17.68,18.46L19.01,18.17L19.12,19.03L19.93,18.46L20.04,18.74L21.06,18.16L21.16,18.46L21.88,18.17L21.98,18.45L22.8,18.16L22.9,18.17L23.51,18.39L23.72,18.15L23.82,18.17L24.74,18.17L24.84,18.09L26.78,18.16L26.88,18.04L27.5,18.45L27.8,18.16L27.91,18.06L32.81,18.17L32.91,18.12L48.96,18.17L49.07,18.17L378.42,17.43L378.52,17.41L392.94,17.35L393.04,17.34L405.82,17.23L405.92,17.22L422.48,17.14L422.58,17.14L435.56,17.04L435.66,17.04L458.56,16.69L458.66,16.71L468.37,16.52L468.48,16.53L485.24,16.44L485.34,16.44L511,16.05L454.57,16.79L454.47,16.81L443.74,17L443.64,17.02L319.64,17.74L319.54,17.75L77.28,18.17L77.18,18.74L76.36,18.17L76.26,18.16L75.34,18.16L75.23,18.17L32.61,18.17L32.51,19.03L32.3,18.17L31.69,18.46L31.59,18.31L31.48,19.03L31.08,18.17L30.77,18.74L30.67,18.46L30.46,18.17L30.36,18.74L30.05,18.74L29.95,19.01L29.13,18.46L29.03,18.74L28.42,18.45L28.32,19.02L27.4,18.46L27.29,18.74L26.58,18.17L26.37,18.45L26.27,18.46L26.17,18.17L25.76,18.46L25.66,19.03L24.94,18.17L24.84,18.74L24.33,18.46L24.12,18.74L24.02,19.03L23.41,18.46L23.31,19.31L23.2,18.74L23.1,19.6L23,18.45L22.39,19.31L22.28,18.46L21.47,19.59L21.36,19.31L20.65,18.74L20.55,19.31L20.24,19.03L19.93,20.45L19.63,20.17L19.52,19.89L19.42,18.74L19.01,21.03L18.81,19.6L18.71,20.74L18.09,18.74L17.99,19.31L17.89,19.89L17.79,20.17L17.68,19.03L17.28,19.89L17.17,19.6L16.56,20.74L16.36,20.17L16.25,20.74L15.95,19.89L15.74,21.32L15.44,20.17L15.33,19.89L14.92,21.03L14.62,20.46L14.52,19.89L14.41,19.31L14.11,21.6L14,20.17L13.9,20.74L13.49,21.03L13.39,19.31L13.08,20.17L12.98,21.03L12.47,21.89L12.27,20.17L12.16,21.03L11.86,22.17L11.55,21.89L11.45,19.89L10.63,22.46L10.53,21.89L10.22,21.32L9.92,22.46L9.81,21.89L9.71,21.32L9.61,20.46L9.3,23.32L9.1,22.46L9,23.6L8.69,23.03L8.48,24.17L8.28,23.32L8.18,24.17L7.97,25.03L7.67,23.6L7.56,23.89L6.75,30.46L6.44,29.6L6.34,26.75L5.32,34.75L5.21,32.75L5.01,32.18L3.88,43.61L3.78,42.47L3.68,43.32L3.37,44.75L3.27,42.47L3.17,44.47L3.07,45.61L2.96,46.18L2.86,41.61L1.84,62.19L1.74,61.62L1.64,60.47L1.53,56.47L1.23,72.19L1.12,76.48L1.02,75.34L0.82,80.2L0.72,82.77L0.61,80.2L0.31,88.49L0.2,90.49L0.1,93.34L0,89.63" style="vector-effect: none; fill: none; stroke: rgb(255, 255, 255); stroke-opacity: 0; stroke-width: 2px; opacity: 1;"/></g><g class="points"/><g class="text"/></g></g></g><g class="overplot"/><path class="xlines-above crisp" d="M0,0" style="fill: none;"/><path class="ylines-above crisp" d="M0,0" style="fill: none;"/><g class="overlines-above"/><g class="xaxislayer-above"><g class="xtick"><text text-anchor="middle" x="0" y="433" transform="translate(80,0)" style="font-family: 'Open Sans', verdana, arial, sans-serif; font-size: 12px; fill: rgb(42, 63, 95); fill-opacity: 1; white-space: pre; opacity: 1;">0</text></g><g class="xtick"><text text-anchor="middle" x="0" y="433" style="font-family: 'Open Sans', verdana, arial, sans-serif; font-size: 12px; fill: rgb(42, 63, 95); fill-opacity: 1; white-space: pre; opacity: 1;" transform="translate(182.22,0)">1000</text></g><g class="xtick"><text text-anchor="middle" x="0" y="433" style="font-family: 'Open Sans', verdana, arial, sans-serif; font-size: 12px; fill: rgb(42, 63, 95); fill-opacity: 1; white-space: pre; opacity: 1;" transform="translate(284.44,0)">2000</text></g><g class="xtick"><text text-anchor="middle" x="0" y="433" style="font-family: 'Open Sans', verdana, arial, sans-serif; font-size: 12px; fill: rgb(42, 63, 95); fill-opacity: 1; white-space: pre; opacity: 1;" transform="translate(386.66,0)">3000</text></g><g class="xtick"><text text-anchor="middle" x="0" y="433" style="font-family: 'Open Sans', verdana, arial, sans-serif; font-size: 12px; fill: rgb(42, 63, 95); fill-opacity: 1; white-space: pre; opacity: 1;" transform="translate(488.88,0)">4000</text></g></g><g class="yaxislayer-above"><g class="ytick"><text text-anchor="end" x="79" y="4.199999999999999" transform="translate(0,404)" style="font-family: 'Open Sans', verdana, arial, sans-serif; font-size: 12px; fill: rgb(42, 63, 95); fill-opacity: 1; white-space: pre; opacity: 1;">−1000</text></g><g class="ytick"><text text-anchor="end" x="79" y="4.199999999999999" style="font-family: 'Open Sans', verdana, arial, sans-serif; font-size: 12px; fill: rgb(42, 63, 95); fill-opacity: 1; white-space: pre; opacity: 1;" transform="translate(0,346.83000000000004)">−800</text></g><g class="ytick"><text text-anchor="end" x="79" y="4.199999999999999" style="font-family: 'Open Sans', verdana, arial, sans-serif; font-size: 12px; fill: rgb(42, 63, 95); fill-opacity: 1; white-space: pre; opacity: 1;" transform="translate(0,289.66999999999996)">−600</text></g><g class="ytick"><text text-anchor="end" x="79" y="4.199999999999999" style="font-family: 'Open Sans', verdana, arial, sans-serif; font-size: 12px; fill: rgb(42, 63, 95); fill-opacity: 1; white-space: pre; opacity: 1;" transform="translate(0,232.5)">−400</text></g><g class="ytick"><text text-anchor="end" x="79" y="4.199999999999999" style="font-family: 'Open Sans', verdana, arial, sans-serif; font-size: 12px; fill: rgb(42, 63, 95); fill-opacity: 1; white-space: pre; opacity: 1;" transform="translate(0,175.34)">−200</text></g><g class="ytick"><text text-anchor="end" x="79" y="4.199999999999999" style="font-family: 'Open Sans', verdana, arial, sans-serif; font-size: 12px; fill: rgb(42, 63, 95); fill-opacity: 1; white-space: pre; opacity: 1;" transform="translate(0,118.17)">0</text></g></g><g class="overaxes-above"/></g></g><g class="polarlayer"/><g class="smithlayer"/><g class="ternarylayer"/><g class="geolayer"/><g class="funnelarealayer"/><g class="pielayer"/><g class="iciclelayer"/><g class="treemaplayer"/><g class="sunburstlayer"/><g class="glimages"/><defs id="topdefs-13b3f3"><g class="clips"/><clipPath id="legend13b3f3"><rect width="87" height="48" x="0" y="0"/></clipPath></defs><g class="layer-above"><g class="imagelayer"/><g class="shapelayer"/></g><g class="infolayer"><g class="legend" pointer-events="all" transform="translate(601.22,100)"><rect class="bg" shape-rendering="crispEdges" style="stroke: rgb(68, 68, 68); stroke-opacity: 1; fill: rgb(255, 255, 255); fill-opacity: 1; stroke-width: 0px;" width="87" height="48" x="0" y="0"/><g class="scrollbox" transform="" clip-path="url(#legend13b3f3)"><g class="groups"><g class="traces" transform="translate(0,14.5)" style="opacity: 1;"><text class="legendtext" text-anchor="start" x="40" y="4.680000000000001" style="font-family: 'Open Sans', verdana, arial, sans-serif; font-size: 12px; fill: rgb(42, 63, 95); fill-opacity: 1; white-space: pre;">agent1</text><g class="layers" style="opacity: 1;"><g class="legendfill"/><g class="legendlines"><path class="js-line" d="M5,0h30" style="fill: none; stroke: rgb(31, 119, 180); stroke-opacity: 1; stroke-width: 2px;"/></g><g class="legendsymbols"><g class="legendpoints"/></g></g><rect class="legendtoggle" x="0" y="-9.5" width="81.796875" height="19" style="fill: rgb(0, 0, 0); fill-opacity: 0;"/></g><g class="traces" transform="translate(0,33.5)" style="opacity: 1;"><text class="legendtext" text-anchor="start" x="40" y="4.680000000000001" style="font-family: 'Open Sans', verdana, arial, sans-serif; font-size: 12px; fill: rgb(42, 63, 95); fill-opacity: 1; white-space: pre;">agent2</text><g class="layers" style="opacity: 1;"><g class="legendfill"/><g class="legendlines"><path class="js-line" d="M5,0h30" style="fill: none; stroke: rgb(255, 127, 14); stroke-opacity: 1; stroke-width: 2px;"/></g><g class="legendsymbols"><g class="legendpoints"/></g></g><rect class="legendtoggle" x="0" y="-9.5" width="81.796875" height="19" style="fill: rgb(0, 0, 0); fill-opacity: 0;"/></g></g></g><rect class="scrollbar" rx="20" ry="3" width="0" height="0" style="fill: rgb(128, 139, 164); fill-opacity: 1;" x="0" y="0"/></g><g class="g-gtitle"/><g class="g-xtitle"><text class="xtitle" x="335.5" y="459.8" text-anchor="middle" style="font-family: 'Open Sans', verdana, arial, sans-serif; font-size: 14px; fill: rgb(42, 63, 95); opacity: 1; font-weight: normal; white-space: pre;">Batch</text></g><g class="g-ytitle"><text class="ytitle" transform="rotate(-90,14.356250000000003,260)" x="14.356250000000003" y="260" text-anchor="middle" style="font-family: 'Open Sans', verdana, arial, sans-serif; font-size: 14px; fill: rgb(42, 63, 95); opacity: 1; font-weight: normal; white-space: pre;">Total Episode Return</text></g></g></svg>