<svg class="main-svg" xmlns="http://www.w3.org/2000/svg" xmlns:xlink="http://www.w3.org/1999/xlink" width="700" height="500" style="" viewBox="0 0 700 500"><rect x="0" y="0" width="700" height="500" style="fill: rgb(255, 255, 255); fill-opacity: 1;"/><defs id="defs-cec997"><g class="clips"><clipPath id="clipcec997xyplot" class="plotclip"><rect width="511" height="320"/></clipPath><clipPath class="axesclip" id="clipcec997x"><rect x="80" y="0" width="511" height="500"/></clipPath><clipPath class="axesclip" id="clipcec997y"><rect x="0" y="100" width="700" height="320"/></clipPath><clipPath class="axesclip" id="clipcec997xy"><rect x="80" y="100" width="511" height="320"/></clipPath></g><g class="gradients"/><g class="patterns"/></defs><g class="bglayer"><rect class="bg" x="80" y="100" width="511" height="320" style="fill: rgb(229, 236, 246); fill-opacity: 1; stroke-width: 0;"/></g><g class="layer-below"><g class="imagelayer"/><g class="shapelayer"/></g><g class="cartesianlayer"><g class="subplot xy"><g class="layer-subplot"><g class="shapelayer"/><g class="imagelayer"/></g><g class="minor-gridlayer"><g class="x"/><g class="y"/></g><g class="gridlayer"><g class="x"><path class="xgrid crisp" transform="translate(182.22,0)" d="M0,100v320" style="stroke: rgb(255, 255, 255); stroke-opacity: 1; stroke-width: 1px;"/><path class="xgrid crisp" transform="translate(284.44,0)" d="M0,100v320" style="stroke: rgb(255, 255, 255); stroke-opacity: 1; stroke-width: 1px;"/><path class="xgrid crisp" transform="translate(386.66,0)" d="M0,100v320" style="stroke: rgb(255, 255, 255); stroke-opacity: 1; stroke-width: 1px;"/><path class="xgrid crisp" transform="translate(488.88,0)" d="M0,100v320" style="stroke: rgb(255, 255, 255); stroke-opacity: 1; stroke-width: 1px;"/></g><g class="y"><path class="ygrid crisp" transform="translate(0,386.01)" d="M80,0h511" style="stroke: rgb(255, 255, 255); stroke-opacity: 1; stroke-width: 1px;"/><path class="ygrid crisp" transform="translate(0,347.73)" d="M80,0h511" style="stroke: rgb(255, 255, 255); stroke-opacity: 1; stroke-width: 1px;"/><path class="ygrid crisp" transform="translate(0,309.45)" d="M80,0h511" style="stroke: rgb(255, 255, 255); stroke-opacity: 1; stroke-width: 1px;"/><path class="ygrid crisp" transform="translate(0,271.16999999999996)" d="M80,0h511" style="stroke: rgb(255, 255, 255); stroke-opacity: 1; stroke-width: 1px;"/><path class="ygrid crisp" transform="translate(0,232.88)" d="M80,0h511" style="stroke: rgb(255, 255, 255); stroke-opacity: 1; stroke-width: 1px;"/><path class="ygrid crisp" transform="translate(0,194.6)" d="M80,0h511" style="stroke: rgb(255, 255, 255); stroke-opacity: 1; stroke-width: 1px;"/><path class="ygrid crisp" transform="translate(0,156.32)" d="M80,0h511" style="stroke: rgb(255, 255, 255); stroke-opacity: 1; stroke-width: 1px;"/></g></g><g class="zerolinelayer"><path class="xzl zl crisp" transform="translate(80,0)" d="M0,100v320" style="stroke: rgb(255, 255, 255); stroke-opacity: 1; stroke-width: 2px;"/><path class="yzl zl crisp" transform="translate(0,118.03999999999999)" d="M80,0h511" style="stroke: rgb(255, 255, 255); stroke-opacity: 1; stroke-width: 2px;"/></g><path class="xlines-below"/><path class="ylines-below"/><g class="overlines-below"/><g class="xaxislayer-below"/><g class="yaxislayer-below"/><g class="overaxes-below"/><g class="plot" transform="translate(80,100)" clip-path="url(#clipcec997xyplot)"><g class="scatterlayer mlayer"><g class="trace scatter trace666d71" style="stroke-miterlimit: 2; opacity: 1;"><g class="fills"/><g class="errorbars"/><g class="lines"><path class="js-line" d="M0,302.56L0.51,302.09L0.92,302.94L1.02,302.47L1.74,303.42L1.84,302.46L2.76,302.65L2.86,302.46L3.78,302.95L3.88,302.46L3.99,303.13L4.5,302.35L4.6,302.54L4.7,302.65L4.91,302.92L5.52,301.76L5.72,302.05L5.83,302.15L6.64,302.05L6.75,301.18L7.87,301.95L7.97,301L8.38,302.24L8.79,301.67L8.89,302.34L9.1,301.58L9.71,302.16L9.81,302.45L10.53,301.68L10.63,302.44L10.73,302.64L11.24,302.74L11.35,302.45L11.45,302.07L11.76,303.04L12.27,302.46L12.37,302.74L12.88,302.84L12.98,302.17L13.6,303.03L13.7,302.93L13.8,302.55L14.52,303.03L14.62,302.64L14.72,302.74L15.13,302.55L15.33,303.13L15.44,303.04L15.54,302.37L15.95,303.14L16.15,302.85L16.25,302.94L16.56,303.04L16.97,302.46L17.07,302.84L17.28,302.56L17.38,302.94L17.68,302.45L17.79,302.55L17.89,302.17L17.99,302.94L18.5,302.56L18.6,302.74L19.63,302.75L19.73,303.13L20.34,302.45L20.44,302.74L20.55,303.12L20.75,301.87L21.36,302.15L21.47,302.26L22.08,302.63L22.39,301.86L22.49,302.54L22.59,301.87L23.2,302.16L23.31,302.26L24.12,302.74L24.23,302.74L24.43,302.07L25.04,302.46L25.15,302.28L25.35,303.24L25.96,303.05L26.07,303.05L26.48,303.53L26.58,303.05L26.68,302.76L27.09,302.38L27.4,303.23L27.5,302.85L28.11,303.04L28.21,302.75L28.32,302.66L28.62,303.23L28.83,302.85L28.93,302.18L29.24,302.74L29.64,302.65L29.75,302.35L30.26,302.65L30.56,302.35L30.67,301.78L31.08,302.44L31.38,301.97L31.48,301.58L32.1,302.34L32.2,302.25L32.3,301.67L32.61,301.09L33.12,302.53L33.22,301.76L33.43,301.86L34.04,300.41L34.14,300.99L34.24,301.94L34.96,300.5L35.16,300.88L35.27,300.88L35.47,301.74L36.19,300.29L36.29,300.39L36.59,299.81L36.7,299.05L36.9,300.58L37.21,298.66L37.31,299.13L37.41,298.37L38.33,300.29L38.43,299.23L38.74,297.78L38.84,298.55L38.95,296.25L39.25,297.11L39.56,294.53L39.76,295.67L39.87,295.09L40.58,292.12L40.68,294.52L40.89,293.75L40.99,294.51L41.09,290.58L41.19,291.63L41.4,288.28L41.6,288.38L41.71,285.5L41.91,288.18L42.22,287.13L42.32,284.54L42.52,288.18L42.83,283L42.93,281.76L43.75,276.1L43.95,277.25L44.06,270.45L44.16,272.18L44.47,266.14L44.57,266.23L44.67,265.76L44.77,260.21L44.98,261.73L45.28,258.86L45.39,256.09L46.71,208.31L46.82,205.05L48.04,157.38L48.15,152.98L48.76,131.34L48.86,126.27L49.78,105.2L49.88,106.74L49.99,111.71L50.09,113.82L50.5,107.6L50.6,109.32L50.7,105.88L50.91,108.08L51.01,103.68L51.11,104.16L51.21,101.09L52.95,69.88L53.15,74.19L53.26,75.72L53.36,79.74L53.67,73.04L53.87,73.13L53.97,73.04L54.07,73.51L54.28,72.17L54.38,68.73L54.48,72.46L54.89,64.23L54.99,64.32L55.1,61.26L55.51,55.52L55.61,49.29L56.12,55.42L56.32,52.65L56.43,52.17L56.53,55.04L57.04,49.3L57.14,48.25L57.35,51.5L57.75,45.75L57.86,44.32L58.06,45.37L58.16,43.75L58.27,46.14L58.47,46.23L59.8,35.8L59.9,34.17L60.11,35.13L60.72,30.53L60.82,32.73L60.92,34.07L61.84,27.18L61.95,25.55L62.25,27.08L62.35,25.26L62.46,24.11L62.56,21.72L62.76,24.4L63.27,22.2L63.38,21.72L63.58,22.29L63.79,21.05L63.89,20.38L64.3,19.61L64.5,22L64.6,20.09L64.71,20.28L65.52,19.32L65.63,19.9L66.34,17.98L66.44,19.42L66.95,17.79L67.26,18.84L67.36,18.75L67.98,17.03L68.18,17.41L68.28,17.6L68.49,16.93L69.1,17.41L69.2,17.22L69.31,17.02L69.51,17.69L69.61,18.17L69.92,17.02L70.33,17.22L70.43,17.89L71.35,16.74L71.45,16.83L71.55,16.83L71.86,17.31L72.17,16.64L72.27,17.02L72.37,16.64L72.88,17.31L73.09,16.93L73.19,16.55L73.6,17.6L73.91,17.12L74.01,16.35L75.13,17.02L75.23,16.55L75.95,17.12L76.05,17.02L76.15,16.64L76.46,16.35L76.87,16.93L76.97,16.74L77.07,16.55L77.99,16.55L78.1,16.93L78.51,16.64L78.81,16.83L78.91,16.93L79.32,16.55L79.43,17.69L80.24,16.45L80.35,16.74L80.75,17.02L81.06,16.64L81.16,16.55L81.47,16.93L82.08,16.45L82.19,17.02L83.11,16.35L83.21,16.55L84.13,16.35L84.23,16.54L84.54,16.35L84.74,16.74L84.95,16.45L85.05,16.45L86.48,16.54L86.58,16.54L88.01,16.64L88.11,16.45L88.93,16.26L89.03,16.55L89.14,16.74L89.24,16.26L89.55,16.93L89.85,16.45L89.95,16.74L90.26,16.35L90.77,16.83L90.87,16.26L91.08,17.02L91.59,16.64L91.69,16.35L92.41,17.02L92.61,16.83L92.71,16.45L93.43,16.93L93.63,16.74L93.74,16.55L94.25,17.02L94.66,16.35L94.76,17.02L95.58,16.35L95.68,16.45L95.78,16.45L96.8,16.55L96.9,16.93L97.62,16.45L97.72,16.74L97.82,16.45L102.22,16.45L102.32,17.22L103.14,16.55L103.24,16.64L103.55,16.93L103.96,16.45L104.06,16.74L104.16,16.93L104.98,16.55L105.08,16.64L105.8,16.45L105.9,16.74L106,16.93L106.41,16.74L106.51,17.6L107.02,16.64L107.33,16.93L107.43,16.93L108.35,16.45L108.46,16.55L108.56,16.74L109.38,16.83L109.48,17.12L110.4,16.35L110.5,16.93L111.42,16.55L111.52,16.35L112.54,16.83L112.65,16.64L113.26,16.45L113.46,16.74L113.57,16.83L114.08,16.35L114.38,16.55L114.49,16.74L115.51,16.45L115.61,16.64L116.12,16.26L116.43,16.45L116.53,16.54L511,16.26" style="vector-effect: none; fill: none; stroke: rgb(31, 119, 180); stroke-opacity: 1; stroke-width: 2px; opacity: 1;"/></g><g class="points"/><g class="text"/></g><g class="trace scatter trace5de5f2" style="stroke-miterlimit: 2; opacity: 1;"><g class="fills"><g><path class="js-fill" d="M0,302.46L0.31,301.31L0.72,301.7L0.82,302.47L1.23,301.7L1.43,302.84L1.53,302.46L1.64,302.46L1.74,303.22L1.84,302.07L2.35,302.46L2.45,301.69L2.56,301.32L2.66,302.46L3.07,301.69L3.17,302.84L3.48,301.69L3.88,302.08L3.99,302.46L4.4,301.3L4.8,302.06L4.91,302.06L5.11,301.29L5.21,302.44L5.42,302.06L5.52,300.9L5.83,302.05L6.34,301.66L6.44,301.66L6.85,300.13L7.26,300.89L7.36,301.27L7.56,300.52L7.97,300.9L8.08,301.66L8.69,300.9L8.79,301.29L8.89,301.68L9.1,300.53L9.71,301.3L9.81,302.07L10.22,302.44L10.53,300.92L10.63,302.06L10.94,302.45L11.45,301.31L11.55,301.7L11.65,301.31L11.76,302.46L12.16,302.08L12.27,302.08L12.88,302.45L12.98,300.93L13.6,302.83L13.7,302.45L13.8,301.7L14.52,302.83L14.62,302.07L15.03,301.32L15.44,302.47L15.54,302.08L15.64,302.85L15.84,301.31L16.15,302.08L16.25,301.7L16.56,302.84L17.17,302.45L17.28,301.69L17.99,302.46L18.09,302.07L18.3,301.69L18.71,302.46L18.81,301.69L19.42,302.83L19.52,302.46L19.63,302.08L19.93,301.69L20.24,302.45L20.34,302.06L20.44,302.07L20.55,302.83L20.75,300.92L21.16,302.44L21.26,301.29L22.08,302.05L22.18,301.29L22.39,301.29L22.49,302.05L23.2,301.3L23.31,302.06L23.51,301.31L23.61,302.45L23.92,301.68L24.02,302.45L24.43,301.3L24.64,301.7L24.74,302.46L25.15,301.32L25.25,302.47L25.35,302.85L25.86,301.7L26.17,302.47L26.27,302.86L26.48,303.24L26.68,302.09L26.99,302.86L27.09,301.71L27.4,303.23L27.8,302.84L27.91,302.08L28.62,302.46L28.72,302.08L28.83,302.08L29.13,302.45L29.34,301.69L29.64,302.07L29.75,301.68L29.95,301.3L30.26,302.45L30.36,302.06L30.46,301.3L30.56,302.06L30.67,300.91L31.18,301.68L31.28,300.91L31.59,299.76L32.1,301.67L32.2,302.05L32.91,300.51L33.02,300.52L33.12,301.67L34.04,300.12L34.14,300.51L34.45,300.89L34.55,299.74L34.86,300.5L34.96,299.73L35.37,299.35L35.47,301.26L35.67,299.72L35.78,300.49L36.7,298.19L36.8,299.34L36.9,299.34L37.21,297.42L37.72,298.56L37.82,298.57L38.33,299.33L38.74,297.02L38.84,298.16L39.56,291.65L39.66,294.33L39.76,294.71L40.48,290.12L40.58,291.26L40.68,292.42L40.79,293.56L40.99,292.03L41.09,285.89L41.19,290.48L41.71,280.52L41.81,285.12L41.91,286.65L42.01,287.79L42.11,284.35L42.22,285.5L42.32,282.44L42.52,287.42L43.34,273.6L43.75,273.99L43.85,273.61L43.95,275.53L44.16,267.48L44.26,267.48L44.36,264.8L45.08,255.61L45.28,255.99L45.39,251.01L47.53,167.91L47.63,168.3L49.47,111.24L49.58,113.53L49.78,100.13L50.29,105.49L50.39,108.94L51.52,91.71L51.62,92.48L52.95,66.44L53.15,70.26L53.26,71.41L53.36,73.71L53.46,69.5L53.56,69.88L53.67,61.84L53.77,71.79L54.38,66.82L54.48,66.81L55.51,49.97L55.61,45.75L56.12,53.03L56.32,51.5L56.43,48.06L56.94,52.65L57.04,46.14L57.14,46.9L57.24,46.9L57.35,49.59L57.45,40.01L57.75,44.22L57.86,38.48L58.57,43.84L58.67,39.25L58.78,40.39L58.88,38.1L59.08,38.48L59.19,34.65L59.29,40.4L59.8,34.26L59.9,30.05L60.11,32.74L60.41,27.76L60.62,31.58L60.72,28.52L60.92,31.2L61.33,25.84L61.43,25.84L61.64,26.99L61.74,24.69L61.84,22.77L62.25,25.83L62.35,22.01L62.46,22.77L62.56,21.24L62.66,23.15L62.87,20.86L63.27,20.86L63.38,19.71L63.48,20.86L63.79,18.56L63.99,19.71L64.09,18.94L64.19,20.09L64.71,17.79L64.81,18.18L65.22,19.7L65.42,18.94L65.52,18.17L65.63,19.7L66.14,17.02L66.24,18.17L66.34,17.41L66.65,17.03L66.85,18.17L66.95,17.03L67.06,17.03L67.36,17.79L67.57,17.41L67.67,16.26L67.87,17.79L68.28,17.02L68.39,16.26L68.59,16.26L68.69,17.41L69.31,16.26L69.41,16.64L69.51,17.41L70.02,16.64L70.33,17.02L70.43,17.03L71.25,16.26L71.35,16.64L72.17,16.26L72.27,16.64L72.78,16.26L72.99,16.64L73.09,16.64L73.8,16.26L73.91,16.64L74.62,16.26L74.72,16.64L75.75,16.26L75.85,16.26L76.56,16.64L76.67,16.26L77.59,16.64L77.69,16.26L79.32,16.26L79.43,17.41L80.24,16.26L80.35,16.26L80.55,16.64L81.16,16.26L81.27,16.26L90.06,16.26L90.16,17.02L90.98,16.26L91.08,16.64L91.9,16.26L92,16.64L92.82,16.26L92.92,16.26L106.41,16.26L106.51,17.02L107.33,16.26L107.43,16.64L108.46,16.26L108.56,16.64L109.38,16.26L109.48,16.64L110.3,16.26L110.4,16.26L110.5,16.64L111.11,16.26L111.22,16.26L511,16.26L329.05,16.26L328.95,17.02L328.13,16.26L328.03,16.26L327.21,16.64L327.11,16.26L281.82,16.64L281.72,17.02L281.11,16.26L280.9,16.64L280.8,16.64L272.01,16.64L271.91,17.02L271.09,16.26L270.99,16.26L260.05,16.26L259.95,17.02L259.03,16.26L258.92,16.64L258.21,16.26L258.11,16.64L258,16.64L256.98,16.26L256.88,17.02L256.06,16.26L255.96,17.02L255.55,16.26L255.35,17.41L255.24,16.64L255.14,17.02L254.22,16.26L254.12,16.64L253.1,16.26L253,16.26L252.48,17.02L252.08,16.64L251.97,16.26L233.57,16.26L233.47,17.02L232.65,16.26L232.55,16.64L231.73,16.26L231.63,16.26L231.22,16.64L230.92,16.26L230.81,16.26L221.31,16.26L221.21,17.03L220.39,16.26L220.29,16.26L217.22,16.65L217.12,17.03L216.3,16.26L216.2,16.65L215.58,16.26L215.48,17.03L214.77,16.26L214.66,16.64L213.85,16.26L213.74,16.26L213.54,16.26L213.44,17.03L212.72,16.26L212.62,16.64L211.8,16.26L211.7,16.64L211.09,16.26L210.98,16.64L210.88,16.64L210.17,16.26L210.06,16.64L209.25,16.26L209.14,16.64L208.33,16.26L208.22,16.64L207.41,16.26L207.3,16.26L206.49,16.64L206.38,16.26L205.87,16.64L205.67,16.26L205.57,16.26L204.24,16.26L204.13,17.03L203.21,16.26L203.11,16.26L202.29,16.64L202.19,16.26L201.99,16.64L201.37,16.26L201.27,16.26L196.57,16.26L196.47,17.02L195.65,16.26L195.55,16.64L194.73,16.26L194.63,16.26L191.46,16.26L191.36,17.02L190.54,16.26L190.44,16.64L189.82,16.26L189.72,16.64L189.62,16.64L188.8,16.26L188.7,16.64L188.19,17.02L187.88,16.26L187.78,16.26L187.57,16.64L186.96,16.26L186.86,16.26L183.79,16.64L183.69,17.02L182.77,16.26L182.67,16.64L182.57,17.02L182.46,16.26L182.05,16.64L181.95,16.26L181.44,17.02L181.24,16.26L181.13,16.26L180.32,16.26L180.21,17.02L179.5,16.26L179.4,17.02L178.58,16.26L178.48,16.26L177.76,16.64L177.66,16.26L177.35,17.02L176.94,16.64L176.84,16.64L175.61,17.02L175.51,16.26L175,17.02L174.49,16.64L174.39,16.64L171.32,16.26L171.22,17.02L170.91,16.26L170.5,16.64L170.4,17.02L169.58,16.26L169.48,17.41L168.66,16.64L168.56,17.41L167.95,16.26L167.74,16.64L167.64,16.64L167.03,16.64L166.93,17.02L166.01,16.26L165.9,16.64L165.8,17.41L165.09,16.26L164.98,17.02L164.06,16.26L163.96,16.64L163.35,16.26L163.25,16.64L163.14,16.64L162.84,16.26L162.43,16.64L162.33,16.64L162.12,17.02L161.81,16.26L161.71,16.26L161.61,16.26L160.79,16.64L160.69,16.64L159.46,16.26L159.36,17.02L158.65,16.26L158.54,16.64L157.73,16.26L157.62,16.64L157.32,17.41L156.91,16.26L156.81,16.64L156.5,16.26L156.19,16.64L156.09,17.02L155.17,16.26L155.07,16.64L154.76,17.02L154.66,17.41L153.74,16.26L153.64,16.64L153.43,17.41L153.13,16.26L152.92,16.64L152.82,16.64L152.31,16.26L152.1,16.64L152,17.02L151.18,16.26L151.08,16.64L149.96,16.64L149.86,17.02L149.04,16.26L148.94,16.64L148.32,16.26L148.12,16.64L148.02,16.64L146.99,16.26L146.89,16.64L146.79,17.02L146.58,16.26L146.28,16.64L146.18,16.26L145.77,17.02L145.15,16.64L145.05,16.26L144.95,17.02L144.34,16.64L144.23,16.26L143.42,16.64L143.31,16.26L141.98,16.64L141.88,17.02L140.96,16.26L140.86,16.26L140.04,16.64L139.94,16.26L139.33,16.64L139.22,17.02L138.61,16.26L138.51,16.64L138.41,16.64L137.59,16.26L137.49,16.64L136.98,16.26L136.77,16.64L136.67,16.64L135.95,16.26L135.85,16.64L135.14,16.26L135.03,16.64L134.11,16.26L134.01,16.64L132.99,16.26L132.89,16.26L132.17,17.02L132.07,16.26L129.92,16.26L129.82,17.02L129.21,16.26L128.9,16.64L128.8,16.64L128.59,16.26L128.18,16.64L128.08,17.41L127.98,16.26L127.37,17.02L127.26,16.64L126.34,16.26L126.24,17.02L125.32,16.26L125.22,17.02L124.4,16.26L124.3,16.64L124.1,16.26L123.58,17.02L123.48,16.26L122.66,16.64L122.56,16.26L122.15,17.02L121.74,16.64L121.64,16.64L120.11,16.64L120.01,16.26L119.8,17.41L119.19,16.64L119.09,16.64L118.98,17.02L118.78,16.26L118.37,16.64L118.27,16.64L117.86,16.26L117.45,17.41L117.35,17.02L116.84,16.64L116.63,17.02L116.53,17.02L116.22,16.64L116.12,16.26L115.3,16.64L115.2,16.64L114.79,17.79L114.49,17.02L114.38,16.64L113.57,17.41L113.46,17.41L112.75,16.64L112.65,17.02L112.54,17.41L112.34,17.41L112.24,16.64L111.22,17.79L111.11,17.02L110.4,16.64L110.3,17.41L109.78,16.64L109.58,17.41L109.48,17.41L108.35,16.64L108.25,17.02L107.64,17.41L107.54,17.02L107.43,17.02L106.51,18.94L106.41,17.41L106.1,17.79L105.8,16.64L105.7,17.02L105.59,17.41L105.49,17.79L105.29,16.64L105.08,17.02L104.98,16.64L104.16,17.79L104.06,17.41L103.45,16.64L103.34,17.02L103.24,17.41L103.04,17.79L102.53,16.64L102.42,17.02L102.32,18.17L101.71,17.41L101.61,17.41L101.1,16.64L100.99,17.79L100.79,17.02L100.69,17.02L100.38,16.64L99.97,17.02L99.87,17.02L98.95,16.64L98.85,17.41L98.03,16.64L97.93,16.64L96.9,17.79L96.8,17.02L96.39,17.41L96.29,16.26L95.78,16.64L95.68,17.02L94.96,16.64L94.86,17.41L94.76,17.79L94.66,16.64L94.15,17.41L94.04,17.02L93.94,16.26L93.63,17.41L93.33,17.02L93.23,16.64L92.41,17.79L92.31,17.41L92.2,16.64L91.9,17.41L91.49,17.02L91.39,16.64L91.08,17.79L90.98,17.02L90.87,16.26L90.16,17.41L90.06,17.02L89.95,17.02L89.65,16.64L89.55,17.41L88.93,16.26L88.73,17.02L88.63,17.02L88.32,16.26L87.81,16.64L87.71,17.02L87.09,17.41L86.89,16.64L86.79,17.02L86.07,16.64L85.97,17.41L85.87,16.26L85.25,16.64L85.15,16.64L84.84,16.64L84.74,17.79L83.92,16.64L83.82,16.26L83.72,17.41L83.11,16.64L83,17.02L82.49,16.64L82.19,17.41L82.08,16.64L81.67,18.17L81.27,17.02L81.16,16.64L80.75,18.17L80.35,17.02L80.24,16.64L79.43,18.56L79.32,17.02L79.12,17.02L79.02,17.79L78.51,16.64L78.2,17.02L78.1,17.41L77.89,17.79L77.18,16.64L77.07,17.02L76.77,17.41L76.46,16.64L76.36,17.02L76.26,17.02L76.05,17.79L75.64,16.64L75.54,18.55L74.62,16.64L74.52,17.41L74.01,16.64L73.91,17.41L73.8,17.79L73.6,18.56L73.19,16.64L72.99,17.02L72.88,18.17L72.37,17.02L72.07,17.41L71.96,17.41L71.35,17.03L71.15,18.17L71.04,17.79L70.94,17.41L70.63,18.17L70.53,18.94L69.71,17.79L69.61,18.94L69.1,17.79L68.9,18.56L68.79,19.7L67.98,17.03L67.87,18.56L67.57,17.79L67.36,20.85L67.16,19.71L67.06,18.94L66.75,18.56L66.44,20.47L66.34,18.56L65.83,21.62L65.63,20.09L65.52,19.71L64.71,22.39L64.6,22L64.5,23.92L64.3,20.85L63.89,22.77L63.79,22.39L62.97,26.21L62.87,23.92L62.56,23.15L62.05,28.52L61.95,26.22L61.54,34.26L61.13,31.97L61.03,32.35L60.92,36.56L60.21,35.41L60.11,37.71L60,36.56L59.7,40.39L59.59,42.31L58.47,48.44L58.37,46.52L57.96,45.75L57.24,58.01L57.14,49.59L56.63,60.31L56.32,54.56L56.22,56.86L56.02,59.53L55.91,53.41L55.71,53.41L55.61,53.79L54.48,76.39L54.38,71.79L53.36,83.66L53.26,78.68L53.05,77.92L52.95,74.09L51.93,97.45L51.83,94.01L51.72,95.92L50.91,118.52L50.8,111.23L50.6,117.36L50.5,110.85L49.99,115.44L49.88,116.59L49.78,108.55L49.27,126.55L49.17,125.79L48.76,134.59L48.66,140.72L48.55,139.95L48.45,150.29L48.35,149.53L48.25,154.89L47.53,175.18L47.43,185.14L47.33,180.93L47.12,197.4L47.02,197.4L46.92,200.84L45.69,248.7L45.59,245.64L44.67,273.61L44.36,272.46L44.26,269.01L43.85,280.51L43.44,277.06L43.34,279.36L42.42,289.72L42.22,289.34L42.11,287.8L41.71,287.42L40.68,296.62L40.58,293.17L39.76,298.54L39.66,297.78L39.56,296.63L39.35,296.64L39.25,299.68L39.05,297.01L38.64,299.71L38.54,300.85L38.43,299.71L38.33,302.01L37.82,300.48L37.72,300.86L37.41,298.94L37.21,299.33L37.11,300.86L36.9,301.25L36.7,300.11L36.49,300.87L36.39,301.25L36.08,300.87L35.67,302.42L35.47,302.03L35.37,302.03L34.96,301.26L34.75,302.42L34.65,301.66L34.55,302.04L34.24,302.81L34.14,301.66L34.04,300.89L33.83,303.19L33.22,302.43L33.12,303.19L32.51,302.05L32.3,302.43L32.2,302.44L31.79,303.2L31.48,302.44L31.38,302.07L30.67,302.83L30.56,302.45L30.16,303.61L29.64,303.22L29.54,302.83L28.93,302.47L28.62,303.61L28.52,303.23L28.32,302.85L27.91,303.61L27.8,303.22L27.7,303.23L27.09,302.86L26.99,303.62L26.88,303.24L26.07,303.63L25.96,303.62L25.04,302.84L24.94,303.23L24.64,302.46L24.02,302.83L23.92,302.84L23.31,302.45L23,303.21L22.9,302.83L22.49,303.21L22.18,302.43L22.08,303.59L21.57,302.44L21.36,302.82L21.26,303.59L20.75,302.83L20.55,303.6L20.44,303.59L20.34,302.83L19.73,303.61L19.63,303.23L19.12,303.61L19.01,302.83L18.71,303.6L18.2,303.22L18.09,302.84L17.89,302.46L17.38,303.61L17.28,302.84L16.66,303.61L16.46,303.23L16.36,303.23L15.95,304L15.74,302.85L15.64,303.23L15.54,302.47L15.33,303.61L14.82,302.84L14.72,303.22L14.31,302.84L14,303.61L13.9,303.22L13.8,303.21L13.19,303.22L13.08,303.61L12.47,303.99L12.27,302.85L12.16,303.23L11.76,303.61L11.45,302.84L11.35,303.6L10.53,302.45L10.43,302.83L10.32,303.59L9.51,302.84L9.4,302.45L8.89,303.2L8.79,302.05L8.69,302.05L8.38,302.81L8.08,302.43L7.97,301.28L7.77,303.2L7.16,302.82L7.05,301.66L6.44,302.82L6.34,302.43L6.24,301.67L5.21,303.21L5.11,302.06L4.29,303.6L4.19,302.84L3.27,303.99L3.17,303.22L2.35,303.22L2.25,302.47L1.43,303.99L1.33,303.23L0.92,303.61L0.82,302.85L0.1,303.61L0,302.85Z" style="fill: rgb(31, 119, 180); fill-opacity: 0.2; stroke-width: 0;"/></g></g><g class="errorbars"/><g class="lines"><path class="js-line" d="M0,302.46L0.31,301.31L0.72,301.7L0.82,302.47L1.23,301.7L1.43,302.84L1.53,302.46L1.64,302.46L1.74,303.22L1.84,302.07L2.35,302.46L2.45,301.69L2.56,301.32L2.66,302.46L3.07,301.69L3.17,302.84L3.48,301.69L3.88,302.08L3.99,302.46L4.4,301.3L4.8,302.06L4.91,302.06L5.11,301.29L5.21,302.44L5.42,302.06L5.52,300.9L5.83,302.05L6.34,301.66L6.44,301.66L6.85,300.13L7.26,300.89L7.36,301.27L7.56,300.52L7.97,300.9L8.08,301.66L8.69,300.9L8.79,301.29L8.89,301.68L9.1,300.53L9.71,301.3L9.81,302.07L10.22,302.44L10.53,300.92L10.63,302.06L10.94,302.45L11.45,301.31L11.55,301.7L11.65,301.31L11.76,302.46L12.16,302.08L12.27,302.08L12.88,302.45L12.98,300.93L13.6,302.83L13.7,302.45L13.8,301.7L14.52,302.83L14.62,302.07L15.03,301.32L15.44,302.47L15.54,302.08L15.64,302.85L15.84,301.31L16.15,302.08L16.25,301.7L16.56,302.84L17.17,302.45L17.28,301.69L17.99,302.46L18.09,302.07L18.3,301.69L18.71,302.46L18.81,301.69L19.42,302.83L19.52,302.46L19.63,302.08L19.93,301.69L20.24,302.45L20.34,302.06L20.44,302.07L20.55,302.83L20.75,300.92L21.16,302.44L21.26,301.29L22.08,302.05L22.18,301.29L22.39,301.29L22.49,302.05L23.2,301.3L23.31,302.06L23.51,301.31L23.61,302.45L23.92,301.68L24.02,302.45L24.43,301.3L24.64,301.7L24.74,302.46L25.15,301.32L25.25,302.47L25.35,302.85L25.86,301.7L26.17,302.47L26.27,302.86L26.48,303.24L26.68,302.09L26.99,302.86L27.09,301.71L27.4,303.23L27.8,302.84L27.91,302.08L28.62,302.46L28.72,302.08L28.83,302.08L29.13,302.45L29.34,301.69L29.64,302.07L29.75,301.68L29.95,301.3L30.26,302.45L30.36,302.06L30.46,301.3L30.56,302.06L30.67,300.91L31.18,301.68L31.28,300.91L31.59,299.76L32.1,301.67L32.2,302.05L32.91,300.51L33.02,300.52L33.12,301.67L34.04,300.12L34.14,300.51L34.45,300.89L34.55,299.74L34.86,300.5L34.96,299.73L35.37,299.35L35.47,301.26L35.67,299.72L35.78,300.49L36.7,298.19L36.8,299.34L36.9,299.34L37.21,297.42L37.72,298.56L37.82,298.57L38.33,299.33L38.74,297.02L38.84,298.16L39.56,291.65L39.66,294.33L39.76,294.71L40.48,290.12L40.58,291.26L40.68,292.42L40.79,293.56L40.99,292.03L41.09,285.89L41.19,290.48L41.71,280.52L41.81,285.12L41.91,286.65L42.01,287.79L42.11,284.35L42.22,285.5L42.32,282.44L42.52,287.42L43.34,273.6L43.75,273.99L43.85,273.61L43.95,275.53L44.16,267.48L44.26,267.48L44.36,264.8L45.08,255.61L45.28,255.99L45.39,251.01L47.53,167.91L47.63,168.3L49.47,111.24L49.58,113.53L49.78,100.13L50.29,105.49L50.39,108.94L51.52,91.71L51.62,92.48L52.95,66.44L53.15,70.26L53.26,71.41L53.36,73.71L53.46,69.5L53.56,69.88L53.67,61.84L53.77,71.79L54.38,66.82L54.48,66.81L55.51,49.97L55.61,45.75L56.12,53.03L56.32,51.5L56.43,48.06L56.94,52.65L57.04,46.14L57.14,46.9L57.24,46.9L57.35,49.59L57.45,40.01L57.75,44.22L57.86,38.48L58.57,43.84L58.67,39.25L58.78,40.39L58.88,38.1L59.08,38.48L59.19,34.65L59.29,40.4L59.8,34.26L59.9,30.05L60.11,32.74L60.41,27.76L60.62,31.58L60.72,28.52L60.92,31.2L61.33,25.84L61.43,25.84L61.64,26.99L61.74,24.69L61.84,22.77L62.25,25.83L62.35,22.01L62.46,22.77L62.56,21.24L62.66,23.15L62.87,20.86L63.27,20.86L63.38,19.71L63.48,20.86L63.79,18.56L63.99,19.71L64.09,18.94L64.19,20.09L64.71,17.79L64.81,18.18L65.22,19.7L65.42,18.94L65.52,18.17L65.63,19.7L66.14,17.02L66.24,18.17L66.34,17.41L66.65,17.03L66.85,18.17L66.95,17.03L67.06,17.03L67.36,17.79L67.57,17.41L67.67,16.26L67.87,17.79L68.28,17.02L68.39,16.26L68.59,16.26L68.69,17.41L69.31,16.26L69.41,16.64L69.51,17.41L70.02,16.64L70.33,17.02L70.43,17.03L71.25,16.26L71.35,16.64L72.17,16.26L72.27,16.64L72.78,16.26L72.99,16.64L73.09,16.64L73.8,16.26L73.91,16.64L74.62,16.26L74.72,16.64L75.75,16.26L75.85,16.26L76.56,16.64L76.67,16.26L77.59,16.64L77.69,16.26L79.32,16.26L79.43,17.41L80.24,16.26L80.35,16.26L80.55,16.64L81.16,16.26L81.27,16.26L90.06,16.26L90.16,17.02L90.98,16.26L91.08,16.64L91.9,16.26L92,16.64L92.82,16.26L92.92,16.26L106.41,16.26L106.51,17.02L107.33,16.26L107.43,16.64L108.46,16.26L108.56,16.64L109.38,16.26L109.48,16.64L110.3,16.26L110.4,16.26L110.5,16.64L111.11,16.26L111.22,16.26L511,16.26L329.05,16.26L328.95,17.02L328.13,16.26L328.03,16.26L327.21,16.64L327.11,16.26L281.82,16.64L281.72,17.02L281.11,16.26L280.9,16.64L280.8,16.64L272.01,16.64L271.91,17.02L271.09,16.26L270.99,16.26L260.05,16.26L259.95,17.02L259.03,16.26L258.92,16.64L258.21,16.26L258.11,16.64L258,16.64L256.98,16.26L256.88,17.02L256.06,16.26L255.96,17.02L255.55,16.26L255.35,17.41L255.24,16.64L255.14,17.02L254.22,16.26L254.12,16.64L253.1,16.26L253,16.26L252.48,17.02L252.08,16.64L251.97,16.26L233.57,16.26L233.47,17.02L232.65,16.26L232.55,16.64L231.73,16.26L231.63,16.26L231.22,16.64L230.92,16.26L230.81,16.26L221.31,16.26L221.21,17.03L220.39,16.26L220.29,16.26L217.22,16.65L217.12,17.03L216.3,16.26L216.2,16.65L215.58,16.26L215.48,17.03L214.77,16.26L214.66,16.64L213.85,16.26L213.74,16.26L213.54,16.26L213.44,17.03L212.72,16.26L212.62,16.64L211.8,16.26L211.7,16.64L211.09,16.26L210.98,16.64L210.88,16.64L210.17,16.26L210.06,16.64L209.25,16.26L209.14,16.64L208.33,16.26L208.22,16.64L207.41,16.26L207.3,16.26L206.49,16.64L206.38,16.26L205.87,16.64L205.67,16.26L205.57,16.26L204.24,16.26L204.13,17.03L203.21,16.26L203.11,16.26L202.29,16.64L202.19,16.26L201.99,16.64L201.37,16.26L201.27,16.26L196.57,16.26L196.47,17.02L195.65,16.26L195.55,16.64L194.73,16.26L194.63,16.26L191.46,16.26L191.36,17.02L190.54,16.26L190.44,16.64L189.82,16.26L189.72,16.64L189.62,16.64L188.8,16.26L188.7,16.64L188.19,17.02L187.88,16.26L187.78,16.26L187.57,16.64L186.96,16.26L186.86,16.26L183.79,16.64L183.69,17.02L182.77,16.26L182.67,16.64L182.57,17.02L182.46,16.26L182.05,16.64L181.95,16.26L181.44,17.02L181.24,16.26L181.13,16.26L180.32,16.26L180.21,17.02L179.5,16.26L179.4,17.02L178.58,16.26L178.48,16.26L177.76,16.64L177.66,16.26L177.35,17.02L176.94,16.64L176.84,16.64L175.61,17.02L175.51,16.26L175,17.02L174.49,16.64L174.39,16.64L171.32,16.26L171.22,17.02L170.91,16.26L170.5,16.64L170.4,17.02L169.58,16.26L169.48,17.41L168.66,16.64L168.56,17.41L167.95,16.26L167.74,16.64L167.64,16.64L167.03,16.64L166.93,17.02L166.01,16.26L165.9,16.64L165.8,17.41L165.09,16.26L164.98,17.02L164.06,16.26L163.96,16.64L163.35,16.26L163.25,16.64L163.14,16.64L162.84,16.26L162.43,16.64L162.33,16.64L162.12,17.02L161.81,16.26L161.71,16.26L161.61,16.26L160.79,16.64L160.69,16.64L159.46,16.26L159.36,17.02L158.65,16.26L158.54,16.64L157.73,16.26L157.62,16.64L157.32,17.41L156.91,16.26L156.81,16.64L156.5,16.26L156.19,16.64L156.09,17.02L155.17,16.26L155.07,16.64L154.76,17.02L154.66,17.41L153.74,16.26L153.64,16.64L153.43,17.41L153.13,16.26L152.92,16.64L152.82,16.64L152.31,16.26L152.1,16.64L152,17.02L151.18,16.26L151.08,16.64L149.96,16.64L149.86,17.02L149.04,16.26L148.94,16.64L148.32,16.26L148.12,16.64L148.02,16.64L146.99,16.26L146.89,16.64L146.79,17.02L146.58,16.26L146.28,16.64L146.18,16.26L145.77,17.02L145.15,16.64L145.05,16.26L144.95,17.02L144.34,16.64L144.23,16.26L143.42,16.64L143.31,16.26L141.98,16.64L141.88,17.02L140.96,16.26L140.86,16.26L140.04,16.64L139.94,16.26L139.33,16.64L139.22,17.02L138.61,16.26L138.51,16.64L138.41,16.64L137.59,16.26L137.49,16.64L136.98,16.26L136.77,16.64L136.67,16.64L135.95,16.26L135.85,16.64L135.14,16.26L135.03,16.64L134.11,16.26L134.01,16.64L132.99,16.26L132.89,16.26L132.17,17.02L132.07,16.26L129.92,16.26L129.82,17.02L129.21,16.26L128.9,16.64L128.8,16.64L128.59,16.26L128.18,16.64L128.08,17.41L127.98,16.26L127.37,17.02L127.26,16.64L126.34,16.26L126.24,17.02L125.32,16.26L125.22,17.02L124.4,16.26L124.3,16.64L124.1,16.26L123.58,17.02L123.48,16.26L122.66,16.64L122.56,16.26L122.15,17.02L121.74,16.64L121.64,16.64L120.11,16.64L120.01,16.26L119.8,17.41L119.19,16.64L119.09,16.64L118.98,17.02L118.78,16.26L118.37,16.64L118.27,16.64L117.86,16.26L117.45,17.41L117.35,17.02L116.84,16.64L116.63,17.02L116.53,17.02L116.22,16.64L116.12,16.26L115.3,16.64L115.2,16.64L114.79,17.79L114.49,17.02L114.38,16.64L113.57,17.41L113.46,17.41L112.75,16.64L112.65,17.02L112.54,17.41L112.34,17.41L112.24,16.64L111.22,17.79L111.11,17.02L110.4,16.64L110.3,17.41L109.78,16.64L109.58,17.41L109.48,17.41L108.35,16.64L108.25,17.02L107.64,17.41L107.54,17.02L107.43,17.02L106.51,18.94L106.41,17.41L106.1,17.79L105.8,16.64L105.7,17.02L105.59,17.41L105.49,17.79L105.29,16.64L105.08,17.02L104.98,16.64L104.16,17.79L104.06,17.41L103.45,16.64L103.34,17.02L103.24,17.41L103.04,17.79L102.53,16.64L102.42,17.02L102.32,18.17L101.71,17.41L101.61,17.41L101.1,16.64L100.99,17.79L100.79,17.02L100.69,17.02L100.38,16.64L99.97,17.02L99.87,17.02L98.95,16.64L98.85,17.41L98.03,16.64L97.93,16.64L96.9,17.79L96.8,17.02L96.39,17.41L96.29,16.26L95.78,16.64L95.68,17.02L94.96,16.64L94.86,17.41L94.76,17.79L94.66,16.64L94.15,17.41L94.04,17.02L93.94,16.26L93.63,17.41L93.33,17.02L93.23,16.64L92.41,17.79L92.31,17.41L92.2,16.64L91.9,17.41L91.49,17.02L91.39,16.64L91.08,17.79L90.98,17.02L90.87,16.26L90.16,17.41L90.06,17.02L89.95,17.02L89.65,16.64L89.55,17.41L88.93,16.26L88.73,17.02L88.63,17.02L88.32,16.26L87.81,16.64L87.71,17.02L87.09,17.41L86.89,16.64L86.79,17.02L86.07,16.64L85.97,17.41L85.87,16.26L85.25,16.64L85.15,16.64L84.84,16.64L84.74,17.79L83.92,16.64L83.82,16.26L83.72,17.41L83.11,16.64L83,17.02L82.49,16.64L82.19,17.41L82.08,16.64L81.67,18.17L81.27,17.02L81.16,16.64L80.75,18.17L80.35,17.02L80.24,16.64L79.43,18.56L79.32,17.02L79.12,17.02L79.02,17.79L78.51,16.64L78.2,17.02L78.1,17.41L77.89,17.79L77.18,16.64L77.07,17.02L76.77,17.41L76.46,16.64L76.36,17.02L76.26,17.02L76.05,17.79L75.64,16.64L75.54,18.55L74.62,16.64L74.52,17.41L74.01,16.64L73.91,17.41L73.8,17.79L73.6,18.56L73.19,16.64L72.99,17.02L72.88,18.17L72.37,17.02L72.07,17.41L71.96,17.41L71.35,17.03L71.15,18.17L71.04,17.79L70.94,17.41L70.63,18.17L70.53,18.94L69.71,17.79L69.61,18.94L69.1,17.79L68.9,18.56L68.79,19.7L67.98,17.03L67.87,18.56L67.57,17.79L67.36,20.85L67.16,19.71L67.06,18.94L66.75,18.56L66.44,20.47L66.34,18.56L65.83,21.62L65.63,20.09L65.52,19.71L64.71,22.39L64.6,22L64.5,23.92L64.3,20.85L63.89,22.77L63.79,22.39L62.97,26.21L62.87,23.92L62.56,23.15L62.05,28.52L61.95,26.22L61.54,34.26L61.13,31.97L61.03,32.35L60.92,36.56L60.21,35.41L60.11,37.71L60,36.56L59.7,40.39L59.59,42.31L58.47,48.44L58.37,46.52L57.96,45.75L57.24,58.01L57.14,49.59L56.63,60.31L56.32,54.56L56.22,56.86L56.02,59.53L55.91,53.41L55.71,53.41L55.61,53.79L54.48,76.39L54.38,71.79L53.36,83.66L53.26,78.68L53.05,77.92L52.95,74.09L51.93,97.45L51.83,94.01L51.72,95.92L50.91,118.52L50.8,111.23L50.6,117.36L50.5,110.85L49.99,115.44L49.88,116.59L49.78,108.55L49.27,126.55L49.17,125.79L48.76,134.59L48.66,140.72L48.55,139.95L48.45,150.29L48.35,149.53L48.25,154.89L47.53,175.18L47.43,185.14L47.33,180.93L47.12,197.4L47.02,197.4L46.92,200.84L45.69,248.7L45.59,245.64L44.67,273.61L44.36,272.46L44.26,269.01L43.85,280.51L43.44,277.06L43.34,279.36L42.42,289.72L42.22,289.34L42.11,287.8L41.71,287.42L40.68,296.62L40.58,293.17L39.76,298.54L39.66,297.78L39.56,296.63L39.35,296.64L39.25,299.68L39.05,297.01L38.64,299.71L38.54,300.85L38.43,299.71L38.33,302.01L37.82,300.48L37.72,300.86L37.41,298.94L37.21,299.33L37.11,300.86L36.9,301.25L36.7,300.11L36.49,300.87L36.39,301.25L36.08,300.87L35.67,302.42L35.47,302.03L35.37,302.03L34.96,301.26L34.75,302.42L34.65,301.66L34.55,302.04L34.24,302.81L34.14,301.66L34.04,300.89L33.83,303.19L33.22,302.43L33.12,303.19L32.51,302.05L32.3,302.43L32.2,302.44L31.79,303.2L31.48,302.44L31.38,302.07L30.67,302.83L30.56,302.45L30.16,303.61L29.64,303.22L29.54,302.83L28.93,302.47L28.62,303.61L28.52,303.23L28.32,302.85L27.91,303.61L27.8,303.22L27.7,303.23L27.09,302.86L26.99,303.62L26.88,303.24L26.07,303.63L25.96,303.62L25.04,302.84L24.94,303.23L24.64,302.46L24.02,302.83L23.92,302.84L23.31,302.45L23,303.21L22.9,302.83L22.49,303.21L22.18,302.43L22.08,303.59L21.57,302.44L21.36,302.82L21.26,303.59L20.75,302.83L20.55,303.6L20.44,303.59L20.34,302.83L19.73,303.61L19.63,303.23L19.12,303.61L19.01,302.83L18.71,303.6L18.2,303.22L18.09,302.84L17.89,302.46L17.38,303.61L17.28,302.84L16.66,303.61L16.46,303.23L16.36,303.23L15.95,304L15.74,302.85L15.64,303.23L15.54,302.47L15.33,303.61L14.82,302.84L14.72,303.22L14.31,302.84L14,303.61L13.9,303.22L13.8,303.21L13.19,303.22L13.08,303.61L12.47,303.99L12.27,302.85L12.16,303.23L11.76,303.61L11.45,302.84L11.35,303.6L10.53,302.45L10.43,302.83L10.32,303.59L9.51,302.84L9.4,302.45L8.89,303.2L8.79,302.05L8.69,302.05L8.38,302.81L8.08,302.43L7.97,301.28L7.77,303.2L7.16,302.82L7.05,301.66L6.44,302.82L6.34,302.43L6.24,301.67L5.21,303.21L5.11,302.06L4.29,303.6L4.19,302.84L3.27,303.99L3.17,303.22L2.35,303.22L2.25,302.47L1.43,303.99L1.33,303.23L0.92,303.61L0.82,302.85L0.1,303.61L0,302.85" style="vector-effect: none; fill: none; stroke: rgb(255, 255, 255); stroke-opacity: 0; stroke-width: 2px; opacity: 1;"/></g><g class="points"/><g class="text"/></g><g class="trace scatter trace6871fd" style="stroke-miterlimit: 2; opacity: 1;"><g class="fills"/><g class="errorbars"/><g class="lines"><path class="js-line" d="M0,29.99L0.41,27.31L0.82,33.82L0.92,29.23L1.12,30.18L1.23,27.6L1.43,27.6L1.53,25.68L2.04,27.79L2.15,25.5L2.25,26.93L2.35,26.74L2.86,23.39L3.27,23.87L3.37,24.07L3.58,24.54L4.4,19.48L4.5,21.01L5.21,18.53L5.42,19.58L5.52,20.16L6.13,18.82L6.24,20.26L6.75,18.73L6.95,20.45L7.05,19.88L7.36,19.3L7.77,21.6L7.87,21.5L7.97,19.21L8.18,18.92L8.28,20.74L8.69,20.16L8.79,19.01L9.1,18.72L9.4,20.25L9.51,19.28L9.61,18.61L9.81,18.33L9.92,19.48L10.12,17.85L10.84,18.04L10.94,18.71L11.04,18.9L11.24,17.85L11.35,17.75L11.55,18.51L11.96,17.65L12.06,17.46L12.47,17.26L12.78,17.74L12.88,17.65L12.98,17.27L13.08,16.69L13.49,18.04L13.7,17.27L13.8,17.37L14.11,16.6L14.31,17.94L14.72,17.08L14.82,17.26L15.03,16.59L15.33,17.84L15.44,17.45L15.54,16.78L15.84,18.21L16.25,16.78L16.36,17.07L16.87,17.84L16.97,17.46L17.07,16.79L17.17,17.27L17.48,16.6L17.79,16.98L17.89,16.88L18.09,16.7L18.2,16.98L18.5,16.79L18.6,16.5L19.01,16.22L19.42,16.6L19.52,16.79L19.93,17.08L20.14,16.51L20.24,16.6L20.34,16.8L21.36,16.13L21.47,16.41L23.82,16.31L23.92,16.12L24.84,16.3L24.94,16.02L25.56,16.3L25.66,16.2L25.76,16.01L26.68,16.39L26.78,16.2L28.52,16.02L28.62,16.21L42.83,16.43L42.93,16.91L43.24,16.16L43.75,16.44L43.85,16.63L44.67,16.26L44.77,16.26L45.79,16.47L45.9,16.19L47.84,16.49L47.94,16.3L49.78,16.31L49.88,16.31L51.42,16.41L51.52,16.22L53.05,16.32L53.15,16.23L54.79,16.52L54.89,16.23L55.51,16.62L55.61,16.33L55.71,16.24L57.24,16.43L57.35,16.33L57.86,16.62L58.16,16.43L58.27,16.43L59.08,16.43L59.19,16.43L59.39,16.24L59.9,16.53L60,16.43L60.11,16.24L60.92,16.53L61.03,16.44L62.87,16.63L62.97,16.35L64.09,16.73L64.19,17.11L64.91,16.35L65.01,16.54L65.11,16.83L65.83,16.45L65.93,16.54L66.03,16.54L66.85,16.45L66.95,16.73L67.06,16.25L67.77,16.45L67.87,16.45L69.92,16.26L70.02,16.26L70.53,16.54L70.74,16.45L70.84,16.26L71.86,16.64L71.96,16.45L72.07,16.26L72.99,16.54L73.09,16.26L75.03,16.35L75.13,16.26L76.97,16.35L77.07,16.26L511,16.35" style="vector-effect: none; fill: none; stroke: rgb(255, 127, 14); stroke-opacity: 1; stroke-width: 2px; opacity: 1;"/></g><g class="points"/><g class="text"/></g><g class="trace scatter trace7b2bd2" style="stroke-miterlimit: 2; opacity: 1;"><g class="fills"><g><path class="js-fill" d="M0,28.26L0.41,25.2L0.82,30.57L0.92,27.11L1.12,27.88L1.33,25.97L1.43,24.44L1.64,26.74L1.74,22.91L2.04,26.74L2.45,24.83L2.56,24.06L3.17,24.45L3.48,21L3.58,23.3L4.4,17.57L4.5,18.33L4.6,19.48L5.11,17.57L5.32,17.95L5.42,18.72L5.62,17.96L6.03,19.48L6.13,18.34L6.75,17.59L6.95,19.5L7.05,18.35L7.77,20.64L7.87,19.5L8.18,17.58L8.28,19.88L8.59,18.73L8.69,19.11L9.1,17.95L9.3,18.71L9.4,19.86L10.12,16.8L10.22,18.33L10.43,18.71L10.73,16.8L10.94,17.94L11.04,18.71L11.14,16.41L11.76,17.55L11.86,17.17L12.47,16.02L12.57,16.78L12.68,17.17L13.39,16.02L13.49,17.56L14.11,16.02L14.21,17.18L14.31,17.56L14.52,16.02L15.03,16.4L15.13,17.17L15.44,16.01L15.95,16.39L16.05,16.78L16.25,16.4L16.66,17.16L16.76,16.78L16.87,16.41L17.07,16.03L17.58,16.79L17.68,16.02L18.2,16.79L18.5,16.4L18.6,16.4L19.42,16.02L19.52,16.4L20.34,16.03L20.44,16.03L23,16.03L23.1,16.79L23.92,16.03L24.02,16.03L42.83,16.14L42.93,16.9L43.75,16.15L43.85,16.53L44.67,16.16L44.77,16.16L55.71,16.24L55.81,16.23L511,16.26L505.17,16.26L505.07,17.02L504.15,16.26L504.05,16.64L503.44,17.02L503.33,16.26L503.23,16.64L502.52,16.26L502.41,17.02L501.49,16.26L501.39,16.26L500.37,16.26L500.27,17.02L499.45,16.26L499.35,16.26L498.84,17.02L498.53,16.64L498.43,16.26L497.92,16.64L497.71,16.26L497.61,16.26L457.23,16.26L457.13,17.02L456.21,16.26L456.11,16.26L455.39,16.64L455.29,16.26L449.26,16.64L449.16,17.02L448.54,16.26L448.34,16.64L448.24,16.64L447.73,16.64L447.62,17.02L446.81,16.26L446.7,16.64L446.29,16.64L446.19,16.26L446.09,17.02L445.48,16.64L445.37,16.26L444.56,17.02L444.45,16.64L444.25,17.02L444.15,16.26L443.84,16.26L443.74,16.26L441.08,16.64L440.98,17.02L440.67,16.26L440.16,16.64L440.06,17.02L439.24,16.26L439.14,16.64L438.32,16.64L438.22,17.02L437.3,16.26L437.2,16.26L436.28,17.02L436.17,16.26L435.87,17.02L435.46,16.64L435.36,16.26L434.64,16.64L434.54,16.26L431.68,16.64L431.57,17.02L430.76,16.26L430.65,16.64L429.84,16.26L429.73,16.26L413.18,16.26L413.07,17.41L412.66,16.26L412.36,16.64L412.26,17.02L411.54,16.26L411.44,16.64L411.34,16.64L410.82,16.26L410.62,16.64L410.52,16.64L410.42,17.02L410.31,16.26L409.9,16.26L409.8,16.26L409.39,16.64L409.29,17.02L408.47,16.26L408.37,16.26L407.45,17.02L407.35,16.26L406.94,17.02L406.63,16.26L406.53,16.26L400.19,16.26L400.09,17.02L399.17,16.26L399.07,16.26L302.27,16.26L302.16,17.02L301.35,16.26L301.24,16.26L295.21,16.26L295.11,17.02L294.29,16.26L294.19,16.64L293.88,17.02L293.58,16.26L293.47,16.64L293.37,16.64L292.86,17.02L292.66,16.26L292.55,16.64L291.74,16.26L291.63,16.64L290.82,16.26L290.71,16.64L289.9,16.26L289.79,16.64L288.98,16.26L288.87,16.64L288.47,17.02L288.36,16.26L288.06,17.02L287.65,16.26L287.55,16.26L286.93,16.64L286.83,16.26L286.73,16.26L285.91,16.64L285.81,16.26L285.3,16.64L285.2,17.02L284.28,16.26L284.17,16.26L283.56,16.64L283.46,16.26L283.36,16.26L282.64,16.64L282.54,16.26L282.44,16.26L281.92,16.26L281.82,17.02L281.52,16.26L281,16.64L280.9,16.64L280.08,16.26L279.98,16.26L279.78,16.64L279.16,16.26L279.06,16.26L277.63,16.26L277.53,17.02L276.61,16.26L276.51,16.64L275.69,16.26L275.59,16.26L273.34,16.26L273.24,17.02L272.42,16.26L272.32,16.26L271.8,16.64L271.6,16.26L271.5,16.26L270.78,17.02L270.68,16.64L270.58,17.02L270.37,16.26L269.96,16.64L269.86,16.26L269.04,16.64L268.94,16.26L268.12,16.64L268.02,16.64L267.41,17.02L267.31,16.26L267.2,16.64L266.39,16.26L266.28,16.64L265.16,16.64L265.06,16.26L264.34,16.64L264.24,16.26L263.93,17.02L263.42,16.64L263.32,16.26L256.47,16.26L256.37,17.02L255.55,16.26L255.45,16.26L254.53,16.64L254.43,16.26L251.56,16.26L251.46,17.02L250.64,16.26L250.54,16.26L250.13,16.26L250.03,17.02L249.21,16.26L249.11,16.26L192.69,16.64L192.58,17.02L191.77,16.26L191.66,16.26L190.85,17.02L190.74,16.26L189.93,17.02L189.82,16.64L187.98,16.64L187.88,16.26L187.06,16.64L186.96,16.64L186.25,16.64L186.14,17.02L185.33,16.26L185.22,17.02L184.41,16.26L184.3,17.02L183.49,16.26L183.38,16.64L183.18,17.02L182.57,16.26L182.46,16.64L182.05,16.26L181.75,16.64L181.65,16.64L181.24,16.26L181.13,17.02L180.52,16.26L180.42,16.64L180.32,17.02L179.5,16.26L179.4,16.64L179.29,16.26L178.68,16.64L178.58,16.64L177.76,16.26L177.66,17.02L177.15,16.26L176.94,16.64L176.84,16.64L176.43,16.26L176.13,16.64L176.02,17.41L175.41,16.26L175.31,17.02L175.21,17.02L174.39,16.26L174.29,16.26L174.08,17.4L173.67,16.64L173.57,16.26L172.96,16.64L172.75,16.26L172.65,16.26L160.28,16.26L160.18,17.02L159.26,16.26L159.16,16.64L158.34,16.26L158.24,16.26L156.7,16.64L156.6,17.02L155.78,16.26L155.68,16.26L150.67,16.26L150.57,17.02L149.86,16.26L149.75,16.64L149.65,16.64L143.82,16.26L143.72,17.02L142.9,16.26L142.8,16.26L142.09,16.64L141.98,16.26L135.75,16.26L135.65,17.02L134.83,16.26L134.73,16.26L114.79,16.26L114.69,17.02L114.18,16.26L113.98,16.64L113.87,16.64L113.67,17.02L113.36,16.26L113.16,16.64L113.06,16.64L112.75,16.26L112.24,17.02L112.14,16.26L111.52,16.64L111.42,16.26L111.32,16.26L111.11,17.02L110.5,16.64L110.4,16.26L109.48,17.02L109.38,16.26L108.86,16.64L108.66,16.26L108.56,16.26L107.84,16.64L107.74,16.26L107.02,16.64L106.92,16.26L106.31,17.02L106.21,16.64L106.1,16.64L105.8,16.26L105.39,17.02L105.29,16.64L105.18,16.64L103.14,16.26L103.04,17.02L102.12,16.26L102.02,16.64L101.91,16.64L95.88,16.26L95.78,17.02L94.86,16.26L94.76,16.64L94.15,16.26L94.04,16.64L93.94,16.64L93.43,17.02L93.23,16.26L93.12,16.64L92.41,16.26L92.31,16.64L92.2,16.64L90.26,16.64L90.16,17.02L89.55,16.26L89.34,16.64L89.24,16.64L88.52,16.26L88.42,16.64L87.4,16.26L87.3,17.02L86.79,16.26L86.58,16.64L86.48,16.64L85.87,16.26L85.76,16.64L85.66,16.64L85.05,16.26L84.95,16.64L84.84,16.64L79.22,16.64L79.12,17.02L78.2,16.26L78.1,16.64L77.89,17.02L77.59,16.26L77.48,16.64L77.38,16.26L75.03,16.64L74.93,17.02L74.21,16.26L74.11,16.64L73.09,16.26L72.99,17.4L72.27,16.26L72.17,17.02L71.86,17.4L71.45,16.26L71.35,16.64L70.63,16.26L70.53,17.02L69.92,16.26L69.71,16.64L69.61,16.64L68.9,16.26L68.79,16.64L67.26,17.02L67.16,17.4L67.06,16.25L66.95,17.78L66.44,16.64L66.34,16.64L65.52,17.4L65.42,17.02L65.32,16.64L65.11,17.79L64.6,17.02L64.5,16.64L63.89,17.4L63.79,16.64L63.68,16.25L62.76,17.02L62.66,17.02L62.56,17.4L62.46,16.63L61.95,17.02L61.84,16.63L61.43,16.25L61.23,17.01L61.13,16.63L61.03,16.63L60.31,16.24L60.21,17.01L59.39,16.24L59.29,17L58.37,16.24L58.27,16.62L57.45,17L57.35,16.62L56.63,17L56.53,16.62L56.22,17.38L56.02,16.24L55.81,16.62L55.71,16.24L54.99,17.38L54.89,16.23L54.07,17L53.97,16.23L53.87,17.37L53.26,16.62L53.15,16.23L52.75,17L52.44,16.61L52.34,16.23L51.93,16.99L51.62,16.22L51.52,16.22L51.21,16.98L50.7,16.6L50.6,16.6L50.39,17.36L50.29,16.22L49.88,16.6L49.78,16.6L49.47,17.35L49.37,16.22L49.27,16.98L48.66,16.22L48.55,16.59L47.23,16.96L47.12,17.34L46.2,16.2L46.1,16.57L45.69,16.95L45.39,16.17L45.28,16.93L44.06,16.92L43.95,16.16L43.34,16.92L43.24,16.16L43.14,16.53L42.83,17.29L42.63,16.14L42.32,16.9L42.22,16.52L42.01,16.52L41.91,17.28L41.09,16.13L40.99,16.52L39.97,16.5L39.87,16.88L38.95,16.11L38.84,16.49L38.23,16.46L38.13,16.84L37.31,16.48L37.21,16.48L36.9,16.85L36.29,16.08L36.19,16.46L35.57,16.83L35.47,16.46L35.37,16.45L34.86,16.07L34.75,16.83L34.55,16.44L34.45,16.83L33.63,16.06L33.53,16.44L33.32,16.05L32.71,16.43L32.61,16.42L29.34,16.41L29.24,16.03L28.93,16.78L28.42,16.39L28.32,16.4L27.91,16.41L27.8,17.17L27.6,16.01L26.99,16.39L26.88,16.39L26.48,16.01L26.37,17.16L26.07,16.77L25.96,16.39L25.76,16.01L25.15,16.78L25.04,16.4L24.94,16.02L24.84,16.78L24.43,16.41L24.33,17.17L23.92,16.41L23.72,16.8L23.61,17.56L22.8,16.8L22.69,17.18L22.28,17.96L21.88,16.43L21.77,16.8L21.47,17.18L21.36,16.42L21.16,16.42L21.06,17.18L20.65,16.42L20.34,17.56L20.24,17.17L20.14,16.79L19.93,17.94L19.52,17.17L19.42,17.17L19.22,17.17L19.12,16.41L18.4,17.94L17.99,17.56L17.89,17.17L16.87,18.32L16.76,17.93L16.25,17.16L16.15,18.7L16.05,17.93L15.95,17.93L15.54,17.16L15.44,19.08L15.23,18.31L15.13,17.94L15.03,16.78L14.82,18.32L14.41,18.32L14.31,18.71L13.6,17.17L13.49,18.33L13.29,17.94L13.19,19.08L13.08,16.79L12.78,19.08L12.27,18.32L12.16,18.69L12.06,17.56L11.55,19.46L11.45,18.7L11.35,18.33L11.14,20.63L10.94,19.85L10.84,18.71L10.02,20.24L9.92,19.87L9.81,19.09L8.89,21.4L8.79,19.87L8.59,19.49L8.48,22.55L8.08,21.8L7.97,20.26L7.87,23.71L7.46,19.87L7.16,22.55L7.05,21.79L6.34,19.88L6.24,22.18L5.72,19.11L5.52,21.03L5.42,20.64L5.21,19.1L4.8,21.78L4.7,20.62L4.6,21.01L3.78,24.43L3.68,23.29L3.07,26.74L2.96,25.22L2.86,24.44L1.74,32.87L1.64,28.27L1.53,26.73L1.33,34.01L1.23,28.65L1.12,32.1L0.92,30.95L0.82,35.55L0.61,32.09L0.51,32.1L0.2,30.56L0.1,32.86L0,32.48Z" style="fill: rgb(255, 127, 14); fill-opacity: 0.2; stroke-width: 0;"/></g></g><g class="errorbars"/><g class="lines"><path class="js-line" d="M0,28.26L0.41,25.2L0.82,30.57L0.92,27.11L1.12,27.88L1.33,25.97L1.43,24.44L1.64,26.74L1.74,22.91L2.04,26.74L2.45,24.83L2.56,24.06L3.17,24.45L3.48,21L3.58,23.3L4.4,17.57L4.5,18.33L4.6,19.48L5.11,17.57L5.32,17.95L5.42,18.72L5.62,17.96L6.03,19.48L6.13,18.34L6.75,17.59L6.95,19.5L7.05,18.35L7.77,20.64L7.87,19.5L8.18,17.58L8.28,19.88L8.59,18.73L8.69,19.11L9.1,17.95L9.3,18.71L9.4,19.86L10.12,16.8L10.22,18.33L10.43,18.71L10.73,16.8L10.94,17.94L11.04,18.71L11.14,16.41L11.76,17.55L11.86,17.17L12.47,16.02L12.57,16.78L12.68,17.17L13.39,16.02L13.49,17.56L14.11,16.02L14.21,17.18L14.31,17.56L14.52,16.02L15.03,16.4L15.13,17.17L15.44,16.01L15.95,16.39L16.05,16.78L16.25,16.4L16.66,17.16L16.76,16.78L16.87,16.41L17.07,16.03L17.58,16.79L17.68,16.02L18.2,16.79L18.5,16.4L18.6,16.4L19.42,16.02L19.52,16.4L20.34,16.03L20.44,16.03L23,16.03L23.1,16.79L23.92,16.03L24.02,16.03L42.83,16.14L42.93,16.9L43.75,16.15L43.85,16.53L44.67,16.16L44.77,16.16L55.71,16.24L55.81,16.23L511,16.26L505.17,16.26L505.07,17.02L504.15,16.26L504.05,16.64L503.44,17.02L503.33,16.26L503.23,16.64L502.52,16.26L502.41,17.02L501.49,16.26L501.39,16.26L500.37,16.26L500.27,17.02L499.45,16.26L499.35,16.26L498.84,17.02L498.53,16.64L498.43,16.26L497.92,16.64L497.71,16.26L497.61,16.26L457.23,16.26L457.13,17.02L456.21,16.26L456.11,16.26L455.39,16.64L455.29,16.26L449.26,16.64L449.16,17.02L448.54,16.26L448.34,16.64L448.24,16.64L447.73,16.64L447.62,17.02L446.81,16.26L446.7,16.64L446.29,16.64L446.19,16.26L446.09,17.02L445.48,16.64L445.37,16.26L444.56,17.02L444.45,16.64L444.25,17.02L444.15,16.26L443.84,16.26L443.74,16.26L441.08,16.64L440.98,17.02L440.67,16.26L440.16,16.64L440.06,17.02L439.24,16.26L439.14,16.64L438.32,16.64L438.22,17.02L437.3,16.26L437.2,16.26L436.28,17.02L436.17,16.26L435.87,17.02L435.46,16.64L435.36,16.26L434.64,16.64L434.54,16.26L431.68,16.64L431.57,17.02L430.76,16.26L430.65,16.64L429.84,16.26L429.73,16.26L413.18,16.26L413.07,17.41L412.66,16.26L412.36,16.64L412.26,17.02L411.54,16.26L411.44,16.64L411.34,16.64L410.82,16.26L410.62,16.64L410.52,16.64L410.42,17.02L410.31,16.26L409.9,16.26L409.8,16.26L409.39,16.64L409.29,17.02L408.47,16.26L408.37,16.26L407.45,17.02L407.35,16.26L406.94,17.02L406.63,16.26L406.53,16.26L400.19,16.26L400.09,17.02L399.17,16.26L399.07,16.26L302.27,16.26L302.16,17.02L301.35,16.26L301.24,16.26L295.21,16.26L295.11,17.02L294.29,16.26L294.19,16.64L293.88,17.02L293.58,16.26L293.47,16.64L293.37,16.64L292.86,17.02L292.66,16.26L292.55,16.64L291.74,16.26L291.63,16.64L290.82,16.26L290.71,16.64L289.9,16.26L289.79,16.64L288.98,16.26L288.87,16.64L288.47,17.02L288.36,16.26L288.06,17.02L287.65,16.26L287.55,16.26L286.93,16.64L286.83,16.26L286.73,16.26L285.91,16.64L285.81,16.26L285.3,16.64L285.2,17.02L284.28,16.26L284.17,16.26L283.56,16.64L283.46,16.26L283.36,16.26L282.64,16.64L282.54,16.26L282.44,16.26L281.92,16.26L281.82,17.02L281.52,16.26L281,16.64L280.9,16.64L280.08,16.26L279.98,16.26L279.78,16.64L279.16,16.26L279.06,16.26L277.63,16.26L277.53,17.02L276.61,16.26L276.51,16.64L275.69,16.26L275.59,16.26L273.34,16.26L273.24,17.02L272.42,16.26L272.32,16.26L271.8,16.64L271.6,16.26L271.5,16.26L270.78,17.02L270.68,16.64L270.58,17.02L270.37,16.26L269.96,16.64L269.86,16.26L269.04,16.64L268.94,16.26L268.12,16.64L268.02,16.64L267.41,17.02L267.31,16.26L267.2,16.64L266.39,16.26L266.28,16.64L265.16,16.64L265.06,16.26L264.34,16.64L264.24,16.26L263.93,17.02L263.42,16.64L263.32,16.26L256.47,16.26L256.37,17.02L255.55,16.26L255.45,16.26L254.53,16.64L254.43,16.26L251.56,16.26L251.46,17.02L250.64,16.26L250.54,16.26L250.13,16.26L250.03,17.02L249.21,16.26L249.11,16.26L192.69,16.64L192.58,17.02L191.77,16.26L191.66,16.26L190.85,17.02L190.74,16.26L189.93,17.02L189.82,16.64L187.98,16.64L187.88,16.26L187.06,16.64L186.96,16.64L186.25,16.64L186.14,17.02L185.33,16.26L185.22,17.02L184.41,16.26L184.3,17.02L183.49,16.26L183.38,16.64L183.18,17.02L182.57,16.26L182.46,16.64L182.05,16.26L181.75,16.64L181.65,16.64L181.24,16.26L181.13,17.02L180.52,16.26L180.42,16.64L180.32,17.02L179.5,16.26L179.4,16.64L179.29,16.26L178.68,16.64L178.58,16.64L177.76,16.26L177.66,17.02L177.15,16.26L176.94,16.64L176.84,16.64L176.43,16.26L176.13,16.64L176.02,17.41L175.41,16.26L175.31,17.02L175.21,17.02L174.39,16.26L174.29,16.26L174.08,17.4L173.67,16.64L173.57,16.26L172.96,16.64L172.75,16.26L172.65,16.26L160.28,16.26L160.18,17.02L159.26,16.26L159.16,16.64L158.34,16.26L158.24,16.26L156.7,16.64L156.6,17.02L155.78,16.26L155.68,16.26L150.67,16.26L150.57,17.02L149.86,16.26L149.75,16.64L149.65,16.64L143.82,16.26L143.72,17.02L142.9,16.26L142.8,16.26L142.09,16.64L141.98,16.26L135.75,16.26L135.65,17.02L134.83,16.26L134.73,16.26L114.79,16.26L114.69,17.02L114.18,16.26L113.98,16.64L113.87,16.64L113.67,17.02L113.36,16.26L113.16,16.64L113.06,16.64L112.75,16.26L112.24,17.02L112.14,16.26L111.52,16.64L111.42,16.26L111.32,16.26L111.11,17.02L110.5,16.64L110.4,16.26L109.48,17.02L109.38,16.26L108.86,16.64L108.66,16.26L108.56,16.26L107.84,16.64L107.74,16.26L107.02,16.64L106.92,16.26L106.31,17.02L106.21,16.64L106.1,16.64L105.8,16.26L105.39,17.02L105.29,16.64L105.18,16.64L103.14,16.26L103.04,17.02L102.12,16.26L102.02,16.64L101.91,16.64L95.88,16.26L95.78,17.02L94.86,16.26L94.76,16.64L94.15,16.26L94.04,16.64L93.94,16.64L93.43,17.02L93.23,16.26L93.12,16.64L92.41,16.26L92.31,16.64L92.2,16.64L90.26,16.64L90.16,17.02L89.55,16.26L89.34,16.64L89.24,16.64L88.52,16.26L88.42,16.64L87.4,16.26L87.3,17.02L86.79,16.26L86.58,16.64L86.48,16.64L85.87,16.26L85.76,16.64L85.66,16.64L85.05,16.26L84.95,16.64L84.84,16.64L79.22,16.64L79.12,17.02L78.2,16.26L78.1,16.64L77.89,17.02L77.59,16.26L77.48,16.64L77.38,16.26L75.03,16.64L74.93,17.02L74.21,16.26L74.11,16.64L73.09,16.26L72.99,17.4L72.27,16.26L72.17,17.02L71.86,17.4L71.45,16.26L71.35,16.64L70.63,16.26L70.53,17.02L69.92,16.26L69.71,16.64L69.61,16.64L68.9,16.26L68.79,16.64L67.26,17.02L67.16,17.4L67.06,16.25L66.95,17.78L66.44,16.64L66.34,16.64L65.52,17.4L65.42,17.02L65.32,16.64L65.11,17.79L64.6,17.02L64.5,16.64L63.89,17.4L63.79,16.64L63.68,16.25L62.76,17.02L62.66,17.02L62.56,17.4L62.46,16.63L61.95,17.02L61.84,16.63L61.43,16.25L61.23,17.01L61.13,16.63L61.03,16.63L60.31,16.24L60.21,17.01L59.39,16.24L59.29,17L58.37,16.24L58.27,16.62L57.45,17L57.35,16.62L56.63,17L56.53,16.62L56.22,17.38L56.02,16.24L55.81,16.62L55.71,16.24L54.99,17.38L54.89,16.23L54.07,17L53.97,16.23L53.87,17.37L53.26,16.62L53.15,16.23L52.75,17L52.44,16.61L52.34,16.23L51.93,16.99L51.62,16.22L51.52,16.22L51.21,16.98L50.7,16.6L50.6,16.6L50.39,17.36L50.29,16.22L49.88,16.6L49.78,16.6L49.47,17.35L49.37,16.22L49.27,16.98L48.66,16.22L48.55,16.59L47.23,16.96L47.12,17.34L46.2,16.2L46.1,16.57L45.69,16.95L45.39,16.17L45.28,16.93L44.06,16.92L43.95,16.16L43.34,16.92L43.24,16.16L43.14,16.53L42.83,17.29L42.63,16.14L42.32,16.9L42.22,16.52L42.01,16.52L41.91,17.28L41.09,16.13L40.99,16.52L39.97,16.5L39.87,16.88L38.95,16.11L38.84,16.49L38.23,16.46L38.13,16.84L37.31,16.48L37.21,16.48L36.9,16.85L36.29,16.08L36.19,16.46L35.57,16.83L35.47,16.46L35.37,16.45L34.86,16.07L34.75,16.83L34.55,16.44L34.45,16.83L33.63,16.06L33.53,16.44L33.32,16.05L32.71,16.43L32.61,16.42L29.34,16.41L29.24,16.03L28.93,16.78L28.42,16.39L28.32,16.4L27.91,16.41L27.8,17.17L27.6,16.01L26.99,16.39L26.88,16.39L26.48,16.01L26.37,17.16L26.07,16.77L25.96,16.39L25.76,16.01L25.15,16.78L25.04,16.4L24.94,16.02L24.84,16.78L24.43,16.41L24.33,17.17L23.92,16.41L23.72,16.8L23.61,17.56L22.8,16.8L22.69,17.18L22.28,17.96L21.88,16.43L21.77,16.8L21.47,17.18L21.36,16.42L21.16,16.42L21.06,17.18L20.65,16.42L20.34,17.56L20.24,17.17L20.14,16.79L19.93,17.94L19.52,17.17L19.42,17.17L19.22,17.17L19.12,16.41L18.4,17.94L17.99,17.56L17.89,17.17L16.87,18.32L16.76,17.93L16.25,17.16L16.15,18.7L16.05,17.93L15.95,17.93L15.54,17.16L15.44,19.08L15.23,18.31L15.13,17.94L15.03,16.78L14.82,18.32L14.41,18.32L14.31,18.71L13.6,17.17L13.49,18.33L13.29,17.94L13.19,19.08L13.08,16.79L12.78,19.08L12.27,18.32L12.16,18.69L12.06,17.56L11.55,19.46L11.45,18.7L11.35,18.33L11.14,20.63L10.94,19.85L10.84,18.71L10.02,20.24L9.92,19.87L9.81,19.09L8.89,21.4L8.79,19.87L8.59,19.49L8.48,22.55L8.08,21.8L7.97,20.26L7.87,23.71L7.46,19.87L7.16,22.55L7.05,21.79L6.34,19.88L6.24,22.18L5.72,19.11L5.52,21.03L5.42,20.64L5.21,19.1L4.8,21.78L4.7,20.62L4.6,21.01L3.78,24.43L3.68,23.29L3.07,26.74L2.96,25.22L2.86,24.44L1.74,32.87L1.64,28.27L1.53,26.73L1.33,34.01L1.23,28.65L1.12,32.1L0.92,30.95L0.82,35.55L0.61,32.09L0.51,32.1L0.2,30.56L0.1,32.86L0,32.48" style="vector-effect: none; fill: none; stroke: rgb(255, 255, 255); stroke-opacity: 0; stroke-width: 2px; opacity: 1;"/></g><g class="points"/><g class="text"/></g></g></g><g class="overplot"/><path class="xlines-above crisp" d="M0,0" style="fill: none;"/><path class="ylines-above crisp" d="M0,0" style="fill: none;"/><g class="overlines-above"/><g class="xaxislayer-above"><g class="xtick"><text text-anchor="middle" x="0" y="433" transform="translate(80,0)" style="font-family: 'Open Sans', verdana, arial, sans-serif; font-size: 12px; fill: rgb(42, 63, 95); fill-opacity: 1; white-space: pre; opacity: 1;">0</text></g><g class="xtick"><text text-anchor="middle" x="0" y="433" style="font-family: 'Open Sans', verdana, arial, sans-serif; font-size: 12px; fill: rgb(42, 63, 95); fill-opacity: 1; white-space: pre; opacity: 1;" transform="translate(182.22,0)">1000</text></g><g class="xtick"><text text-anchor="middle" x="0" y="433" style="font-family: 'Open Sans', verdana, arial, sans-serif; font-size: 12px; fill: rgb(42, 63, 95); fill-opacity: 1; white-space: pre; opacity: 1;" transform="translate(284.44,0)">2000</text></g><g class="xtick"><text text-anchor="middle" x="0" y="433" style="font-family: 'Open Sans', verdana, arial, sans-serif; font-size: 12px; fill: rgb(42, 63, 95); fill-opacity: 1; white-space: pre; opacity: 1;" transform="translate(386.66,0)">3000</text></g><g class="xtick"><text text-anchor="middle" x="0" y="433" style="font-family: 'Open Sans', verdana, arial, sans-serif; font-size: 12px; fill: rgb(42, 63, 95); fill-opacity: 1; white-space: pre; opacity: 1;" transform="translate(488.88,0)">4000</text></g></g><g class="yaxislayer-above"><g class="ytick"><text text-anchor="end" x="79" y="4.199999999999999" transform="translate(0,386.01)" style="font-family: 'Open Sans', verdana, arial, sans-serif; font-size: 12px; fill: rgb(42, 63, 95); fill-opacity: 1; white-space: pre; opacity: 1;">700</text></g><g class="ytick"><text text-anchor="end" x="79" y="4.199999999999999" style="font-family: 'Open Sans', verdana, arial, sans-serif; font-size: 12px; fill: rgb(42, 63, 95); fill-opacity: 1; white-space: pre; opacity: 1;" transform="translate(0,347.73)">600</text></g><g class="ytick"><text text-anchor="end" x="79" y="4.199999999999999" style="font-family: 'Open Sans', verdana, arial, sans-serif; font-size: 12px; fill: rgb(42, 63, 95); fill-opacity: 1; white-space: pre; opacity: 1;" transform="translate(0,309.45)">500</text></g><g class="ytick"><text text-anchor="end" x="79" y="4.199999999999999" style="font-family: 'Open Sans', verdana, arial, sans-serif; font-size: 12px; fill: rgb(42, 63, 95); fill-opacity: 1; white-space: pre; opacity: 1;" transform="translate(0,271.16999999999996)">400</text></g><g class="ytick"><text text-anchor="end" x="79" y="4.199999999999999" style="font-family: 'Open Sans', verdana, arial, sans-serif; font-size: 12px; fill: rgb(42, 63, 95); fill-opacity: 1; white-space: pre; opacity: 1;" transform="translate(0,232.88)">300</text></g><g class="ytick"><text text-anchor="end" x="79" y="4.199999999999999" style="font-family: 'Open Sans', verdana, arial, sans-serif; font-size: 12px; fill: rgb(42, 63, 95); fill-opacity: 1; white-space: pre; opacity: 1;" transform="translate(0,194.6)">200</text></g><g class="ytick"><text text-anchor="end" x="79" y="4.199999999999999" style="font-family: 'Open Sans', verdana, arial, sans-serif; font-size: 12px; fill: rgb(42, 63, 95); fill-opacity: 1; white-space: pre; opacity: 1;" transform="translate(0,156.32)">100</text></g><g class="ytick"><text text-anchor="end" x="79" y="4.199999999999999" style="font-family: 'Open Sans', verdana, arial, sans-serif; font-size: 12px; fill: rgb(42, 63, 95); fill-opacity: 1; white-space: pre; opacity: 1;" transform="translate(0,118.03999999999999)">0</text></g></g><g class="overaxes-above"/></g></g><g class="polarlayer"/><g class="smithlayer"/><g class="ternarylayer"/><g class="geolayer"/><g class="funnelarealayer"/><g class="pielayer"/><g class="iciclelayer"/><g class="treemaplayer"/><g class="sunburstlayer"/><g class="glimages"/><defs id="topdefs-cec997"><g class="clips"/><clipPath id="legendcec997"><rect width="87" height="48" x="0" y="0"/></clipPath></defs><g class="layer-above"><g class="imagelayer"/><g class="shapelayer"/></g><g class="infolayer"><g class="legend" pointer-events="all" transform="translate(601.22,100)"><rect class="bg" shape-rendering="crispEdges" width="87" height="48" x="0" y="0" style="stroke: rgb(68, 68, 68); stroke-opacity: 1; fill: rgb(255, 255, 255); fill-opacity: 1; stroke-width: 0px;"/><g class="scrollbox" transform="" clip-path="url(#legendcec997)"><g class="groups"><g class="traces" transform="translate(0,14.5)" style="opacity: 1;"><text class="legendtext" text-anchor="start" x="40" y="4.680000000000001" style="font-family: 'Open Sans', verdana, arial, sans-serif; font-size: 12px; fill: rgb(42, 63, 95); fill-opacity: 1; white-space: pre;">agent1</text><g class="layers" style="opacity: 1;"><g class="legendfill"/><g class="legendlines"><path class="js-line" d="M5,0h30" style="fill: none; stroke: rgb(31, 119, 180); stroke-opacity: 1; stroke-width: 2px;"/></g><g class="legendsymbols"><g class="legendpoints"/></g></g><rect class="legendtoggle" x="0" y="-9.5" width="81.796875" height="19" style="fill: rgb(0, 0, 0); fill-opacity: 0;"/></g><g class="traces" transform="translate(0,33.5)" style="opacity: 1;"><text class="legendtext" text-anchor="start" x="40" y="4.680000000000001" style="font-family: 'Open Sans', verdana, arial, sans-serif; font-size: 12px; fill: rgb(42, 63, 95); fill-opacity: 1; white-space: pre;">agent2</text><g class="layers" style="opacity: 1;"><g class="legendfill"/><g class="legendlines"><path class="js-line" d="M5,0h30" style="fill: none; stroke: rgb(255, 127, 14); stroke-opacity: 1; stroke-width: 2px;"/></g><g class="legendsymbols"><g class="legendpoints"/></g></g><rect class="legendtoggle" x="0" y="-9.5" width="81.796875" height="19" style="fill: rgb(0, 0, 0); fill-opacity: 0;"/></g></g></g><rect class="scrollbar" rx="20" ry="3" width="0" height="0" x="0" y="0" style="fill: rgb(128, 139, 164); fill-opacity: 1;"/></g><g class="g-gtitle"/><g class="g-xtitle"><text class="xtitle" x="335.5" y="459.8" text-anchor="middle" style="font-family: 'Open Sans', verdana, arial, sans-serif; font-size: 14px; fill: rgb(42, 63, 95); opacity: 1; font-weight: normal; white-space: pre;">Batch</text></g><g class="g-ytitle"><text class="ytitle" transform="rotate(-90,21.981250000000003,260)" x="21.981250000000003" y="260" text-anchor="middle" style="font-family: 'Open Sans', verdana, arial, sans-serif; font-size: 14px; fill: rgb(42, 63, 95); opacity: 1; font-weight: normal; white-space: pre;">Total Episode Return</text></g></g></svg>