<svg class="main-svg" xmlns="http://www.w3.org/2000/svg" xmlns:xlink="http://www.w3.org/1999/xlink" width="700" height="500" style="" viewBox="0 0 700 500"><rect x="0" y="0" width="700" height="500" style="fill: rgb(255, 255, 255); fill-opacity: 1;"/><defs id="defs-961b04"><g class="clips"><clipPath id="clip961b04xyplot" class="plotclip"><rect width="464.35999999999996" height="320"/></clipPath><clipPath id="clip961b04xy2plot" class="plotclip"><rect width="464.35999999999996" height="320"/></clipPath><clipPath class="axesclip" id="clip961b04x"><rect x="80" y="0" width="464.35999999999996" height="500"/></clipPath><clipPath class="axesclip" id="clip961b04y"><rect x="0" y="100" width="700" height="320"/></clipPath><clipPath class="axesclip" id="clip961b04xy"><rect x="80" y="100" width="464.35999999999996" height="320"/></clipPath><clipPath class="axesclip" id="clip961b04y2"><rect x="0" y="100" width="700" height="320"/></clipPath><clipPath class="axesclip" id="clip961b04xy2"><rect x="80" y="100" width="464.35999999999996" height="320"/></clipPath></g><g class="gradients"/><g class="patterns"/></defs><g class="bglayer"><rect class="bg" x="80" y="100" width="464.35999999999996" height="320" style="fill: rgb(229, 236, 246); fill-opacity: 1; stroke-width: 0;"/></g><g class="layer-below"><g class="imagelayer"/><g class="shapelayer"/></g><g class="cartesianlayer"><g class="subplot xy"><g class="layer-subplot"><g class="shapelayer"/><g class="imagelayer"/></g><g class="minor-gridlayer"><g class="x"/><g class="y"/><g class="y2"/></g><g class="gridlayer"><g class="x"><path class="xgrid crisp" transform="translate(173.81,0)" d="M0,100v320" style="stroke: rgb(255, 255, 255); stroke-opacity: 1; stroke-width: 1px;"/><path class="xgrid crisp" transform="translate(267.62,0)" d="M0,100v320" style="stroke: rgb(255, 255, 255); stroke-opacity: 1; stroke-width: 1px;"/><path class="xgrid crisp" transform="translate(361.43,0)" d="M0,100v320" style="stroke: rgb(255, 255, 255); stroke-opacity: 1; stroke-width: 1px;"/><path class="xgrid crisp" transform="translate(455.24,0)" d="M0,100v320" style="stroke: rgb(255, 255, 255); stroke-opacity: 1; stroke-width: 1px;"/></g><g class="y"><path class="ygrid crisp" transform="translate(0,396.9)" d="M80,0h464.35999999999996" style="stroke: rgb(255, 255, 255); stroke-opacity: 1; stroke-width: 1px;"/><path class="ygrid crisp" transform="translate(0,350.08000000000004)" d="M80,0h464.35999999999996" style="stroke: rgb(255, 255, 255); stroke-opacity: 1; stroke-width: 1px;"/><path class="ygrid crisp" transform="translate(0,303.27)" d="M80,0h464.35999999999996" style="stroke: rgb(255, 255, 255); stroke-opacity: 1; stroke-width: 1px;"/><path class="ygrid crisp" transform="translate(0,256.45)" d="M80,0h464.35999999999996" style="stroke: rgb(255, 255, 255); stroke-opacity: 1; stroke-width: 1px;"/><path class="ygrid crisp" transform="translate(0,209.63)" d="M80,0h464.35999999999996" style="stroke: rgb(255, 255, 255); stroke-opacity: 1; stroke-width: 1px;"/><path class="ygrid crisp" transform="translate(0,162.82)" d="M80,0h464.35999999999996" style="stroke: rgb(255, 255, 255); stroke-opacity: 1; stroke-width: 1px;"/><path class="ygrid crisp" transform="translate(0,116)" d="M80,0h464.35999999999996" style="stroke: rgb(255, 255, 255); stroke-opacity: 1; stroke-width: 1px;"/></g><g class="y2"><path class="y2grid crisp" transform="translate(0,354.84000000000003)" d="M80,0h464.35999999999996" style="stroke: rgb(255, 255, 255); stroke-opacity: 1; stroke-width: 1px;"/><path class="y2grid crisp" transform="translate(0,300.22)" d="M80,0h464.35999999999996" style="stroke: rgb(255, 255, 255); stroke-opacity: 1; stroke-width: 1px;"/><path class="y2grid crisp" transform="translate(0,245.6)" d="M80,0h464.35999999999996" style="stroke: rgb(255, 255, 255); stroke-opacity: 1; stroke-width: 1px;"/><path class="y2grid crisp" transform="translate(0,190.98000000000002)" d="M80,0h464.35999999999996" style="stroke: rgb(255, 255, 255); stroke-opacity: 1; stroke-width: 1px;"/><path class="y2grid crisp" transform="translate(0,136.36)" d="M80,0h464.35999999999996" style="stroke: rgb(255, 255, 255); stroke-opacity: 1; stroke-width: 1px;"/></g></g><g class="zerolinelayer"><path class="xzl zl crisp" transform="translate(80,0)" d="M0,100v320" style="stroke: rgb(255, 255, 255); stroke-opacity: 1; stroke-width: 2px;"/><path class="y2zl zl crisp" transform="translate(0,409.46)" d="M80,0h464.35999999999996" style="stroke: rgb(255, 255, 255); stroke-opacity: 1; stroke-width: 2px;"/></g><path class="xlines-below"/><path class="ylines-below"/><g class="overlines-below"><path class="xy2-x"/><path class="xy2-y"/></g><g class="xaxislayer-below"/><g class="yaxislayer-below"/><g class="overaxes-below"><g class="xy2-x"/><g class="xy2-y"/></g><g class="plot" transform="translate(80,100)" clip-path="url(#clip961b04xyplot)"><g class="scatterlayer mlayer"><g class="trace scatter tracec6d8ad" style="stroke-miterlimit: 2; opacity: 1;"><g class="fills"/><g class="errorbars"/><g class="lines"><path class="js-line" d="M0,16L32.83,17.49L37.52,17.78L84.43,21.65L89.12,22.13L126.64,26.71L131.33,27.39L164.17,32.86L168.86,33.76L201.69,41.16L206.38,42.41L229.83,49.49L234.53,51.1L257.98,60.23L262.67,62.29L281.43,71.43L286.12,73.95L304.88,85.06L309.57,88.12L328.34,101.62L333.03,105.31L347.1,117.34L351.79,121.7L365.86,135.83L370.55,140.92L384.62,157.44L389.31,163.39L403.38,182.77L408.07,189.78L422.15,212.43L426.84,220.46L440.91,246.42L445.6,255.74L459.67,285.7L464.36,296.45" style="vector-effect: non-scaling-stroke; fill: none; stroke: rgb(30, 67, 130); stroke-opacity: 1; stroke-width: 2px; opacity: 1;"/></g><g class="points"/><g class="text"/></g><g class="trace scatter trace1d3cd0" style="stroke-miterlimit: 2;"><g class="fills"><g><path class="js-fill" d="M0,16L28.14,17.37L32.83,17.72L75.05,21.49L79.74,21.99L121.95,27.28L126.64,27.98L159.48,33.65L164.17,34.59L192.31,41.07L197,42.32L220.45,49.45L225.14,51.06L248.6,60.22L253.29,62.29L272.05,71.48L276.74,74.02L295.5,85.13L300.19,88.17L318.95,101.38L323.64,104.97L342.41,120.63L347.1,124.9L365.86,143.64L370.55,148.75L384.62,165.29L389.31,171.23L403.38,190.54L408.07,197.54L422.15,220.11L426.84,228.09L440.91,253.86L445.6,263.18L459.67,293.24L464.36,304L464.36,288.9L459.67,278.17L445.6,248.31L440.91,238.97L426.84,212.84L422.15,204.76L408.07,182.02L403.38,174.99L389.31,155.55L384.62,149.58L370.55,133.1L365.86,128.02L351.79,114.05L347.1,109.78L333.03,98.09L328.34,94.55L309.57,81.69L304.88,78.82L286.12,68.53L281.43,66.22L262.67,57.9L257.98,56.02L234.53,47.7L229.83,46.23L206.38,39.82L201.69,38.69L168.86,31.96L164.17,31.13L126.64,25.45L121.95,24.85L84.43,20.8L79.74,20.39L37.52,17.49L32.83,17.26L0,16Z" style="fill: rgb(30, 67, 130); fill-opacity: 0.2; stroke-width: 0;"/></g></g><g class="errorbars"/><g class="lines"><path class="js-line" d="M0,16L32.83,17.26L37.52,17.49L79.74,20.39L84.43,20.8L121.95,24.85L126.64,25.45L164.17,31.13L168.86,31.96L201.69,38.69L206.38,39.82L229.83,46.23L234.53,47.7L257.98,56.02L262.67,57.9L281.43,66.22L286.12,68.53L304.88,78.82L309.57,81.69L328.34,94.55L333.03,98.09L347.1,109.78L351.79,114.05L365.86,128.02L370.55,133.1L384.62,149.58L389.31,155.55L403.38,174.99L408.07,182.02L422.15,204.76L426.84,212.84L440.91,238.97L445.6,248.31L459.67,278.17L464.36,288.9" style="vector-effect: non-scaling-stroke; fill: none; stroke: rgb(239, 85, 59); stroke-opacity: 1; stroke-width: 0px; opacity: 1;"/></g><g class="points"/><g class="text"/></g><g class="trace scatter traceb36d19" style="stroke-miterlimit: 2;"><g class="fills"/><g class="errorbars"/><g class="lines"><path class="js-line" d="M0,16L28.14,17.37L32.83,17.72L75.05,21.49L79.74,21.99L121.95,27.28L126.64,27.98L159.48,33.65L164.17,34.59L192.31,41.07L197,42.32L220.45,49.45L225.14,51.06L248.6,60.22L253.29,62.29L272.05,71.48L276.74,74.02L295.5,85.13L300.19,88.17L318.95,101.38L323.64,104.97L342.41,120.63L347.1,124.9L365.86,143.64L370.55,148.75L384.62,165.29L389.31,171.23L403.38,190.54L408.07,197.54L422.15,220.11L426.84,228.09L440.91,253.86L445.6,263.18L459.67,293.24L464.36,304" style="vector-effect: non-scaling-stroke; fill: none; stroke: rgb(0, 204, 150); stroke-opacity: 1; stroke-width: 0px; opacity: 1;"/></g><g class="points"/><g class="text"/></g></g></g><g class="overplot"><g class="xy2" transform="translate(80,100)" clip-path="url(#clip961b04xy2plot)"><g class="scatterlayer mlayer"><g class="trace scatter trace4b5b89" style="stroke-miterlimit: 2; opacity: 1;"><g class="fills"/><g class="errorbars"/><g class="lines"><path class="js-line" d="M0,303.99L65.67,303.3L70.36,303.19L145.41,300.59L150.1,300.36L178.24,298.28L182.93,297.83L206.38,295.41L211.07,294.84L248.6,289.39L253.29,288.58L328.34,275.35L333.03,274.19L361.17,266.37L365.86,264.98L394,256.49L398.69,254.33L408.07,250.87L412.76,249.73L426.84,244.77L431.53,242.71L440.91,239.9L445.6,237.64L454.98,232.28L459.67,229.54L464.36,226.5" style="vector-effect: non-scaling-stroke; fill: none; stroke: rgb(163, 2, 2); stroke-opacity: 1; stroke-width: 2px; opacity: 1;"/></g><g class="points"/><g class="text"/></g><g class="trace scatter trace7e46ad" style="stroke-miterlimit: 2;"><g class="fills"><g><path class="js-fill" d="M0,303.99L93.81,303.33L98.5,303.24L150.1,301.64L154.79,301.44L197,298.55L201.69,298.11L239.22,294.06L243.91,293.49L281.43,288.14L286.12,287.32L356.48,274.62L361.17,274.04L389.31,270.1L394,268.9L403.38,265.82L408.07,265.13L412.76,264.73L417.45,263.32L426.84,261.48L431.53,260.02L436.22,260.13L440.91,258.31L445.6,256.96L450.29,254.82L464.36,250.97L464.36,202.03L454.98,210.91L450.29,214.38L440.91,221.5L436.22,222.74L431.53,225.41L426.84,228.07L422.15,229.83L417.45,233.22L412.76,234.74L408.07,236.61L394,244.08L389.31,246.07L379.93,250.76L375.24,252.74L361.17,258.7L356.48,260.87L337.72,268.36L333.03,269.96L318.95,273.58L314.26,274.57L286.12,279.08L281.43,279.73L253.29,284.92L248.6,285.89L215.76,291.73L211.07,292.42L173.55,297.09L168.86,297.59L136.02,299.87L131.33,300.13L56.29,303.2L51.6,303.34L0,303.99Z" style="fill: rgb(163, 2, 2); fill-opacity: 0.2; stroke-width: 0;"/></g></g><g class="errorbars"/><g class="lines"><path class="js-line" d="M0,303.99L51.6,303.34L56.29,303.2L131.33,300.13L136.02,299.87L168.86,297.59L173.55,297.09L211.07,292.42L215.76,291.73L248.6,285.89L253.29,284.92L281.43,279.73L286.12,279.08L314.26,274.57L318.95,273.58L333.03,269.96L337.72,268.36L356.48,260.87L361.17,258.7L375.24,252.74L379.93,250.76L389.31,246.07L394,244.08L408.07,236.61L412.76,234.74L417.45,233.22L422.15,229.83L426.84,228.07L431.53,225.41L436.22,222.74L440.91,221.5L450.29,214.38L454.98,210.91L464.36,202.03" style="vector-effect: non-scaling-stroke; fill: none; stroke: rgb(255, 161, 90); stroke-opacity: 1; stroke-width: 0px; opacity: 1;"/></g><g class="points"/><g class="text"/></g><g class="trace scatter trace03bf33" style="stroke-miterlimit: 2;"><g class="fills"/><g class="errorbars"/><g class="lines"><path class="js-line" d="M0,303.99L93.81,303.33L98.5,303.24L150.1,301.64L154.79,301.44L197,298.55L201.69,298.11L239.22,294.06L243.91,293.49L281.43,288.14L286.12,287.32L356.48,274.62L361.17,274.04L389.31,270.1L394,268.9L403.38,265.82L408.07,265.13L412.76,264.73L417.45,263.32L426.84,261.48L431.53,260.02L436.22,260.13L440.91,258.31L445.6,256.96L450.29,254.82L464.36,250.97" style="vector-effect: non-scaling-stroke; fill: none; stroke: rgb(25, 211, 243); stroke-opacity: 1; stroke-width: 0px; opacity: 1;"/></g><g class="points"/><g class="text"/></g><g class="trace scatter trace7285fb" style="stroke-miterlimit: 2; opacity: 1;"><g class="fills"/><g class="errorbars"/><g class="lines"><path class="js-line" d="M0,303.99L46.91,303.3L51.6,303.13L84.43,301.35L89.12,300.99L131.33,296.88L136.02,296.32L173.55,290.92L178.24,290.11L206.38,284.47L211.07,283.39L239.22,275.81L243.91,274.32L267.36,265.98L272.05,264.06L290.81,255.28L295.5,252.81L314.26,242L318.95,239.02L337.72,225.84L342.41,222.16L361.17,205.84L365.86,201.33L379.93,186.3L384.62,180.66L398.69,162.24L403.38,155.59L417.45,133.1L422.15,124.75L436.22,98.55L440.91,89.19L454.98,58.39L459.67,46.76L464.36,35.42" style="vector-effect: non-scaling-stroke; fill: none; stroke: rgb(252, 3, 136); stroke-opacity: 1; stroke-width: 2px; opacity: 1;"/></g><g class="points"/><g class="text"/></g><g class="trace scatter trace0a2e33" style="stroke-miterlimit: 2;"><g class="fills"><g><path class="js-fill" d="M0,303.99L51.6,303.26L56.29,303.1L89.12,301.27L93.81,300.9L140.72,296.35L145.41,295.77L178.24,291.08L182.93,290.27L211.07,284.76L215.76,283.66L243.91,276.1L248.6,274.68L272.05,266.4L276.74,264.49L295.5,255.93L300.19,253.61L318.95,243.11L323.64,240.23L337.72,230.79L342.41,227.32L361.17,211.98L365.86,207.72L379.93,193.62L384.62,188.36L398.69,171.31L403.38,165.26L417.45,145.56L422.15,137.87L436.22,113.92L440.91,105.3L459.67,65.08L464.36,54.84L464.36,16L459.67,28.43L454.98,40.66L440.91,73.08L436.22,83.18L417.45,120.63L412.76,129.8L403.38,145.92L398.69,153.17L389.31,166.79L384.62,172.96L370.55,189.92L365.86,194.94L351.79,208.7L347.1,212.92L333.03,224.59L328.34,228.21L309.57,241.19L304.88,244.12L286.12,254.84L281.43,257.27L267.36,263.73L262.67,265.66L239.22,274.1L234.53,275.57L206.38,283.17L201.69,284.28L173.55,289.99L168.86,290.81L131.33,296.35L126.64,296.92L89.12,300.72L84.43,301.1L46.91,303.19L42.21,303.35L0,303.99Z" style="fill: rgb(252, 3, 136); fill-opacity: 0.2; stroke-width: 0;"/></g></g><g class="errorbars"/><g class="lines"><path class="js-line" d="M0,303.99L42.21,303.35L46.91,303.19L84.43,301.1L89.12,300.72L126.64,296.92L131.33,296.35L168.86,290.81L173.55,289.99L201.69,284.28L206.38,283.17L234.53,275.57L239.22,274.1L262.67,265.66L267.36,263.73L281.43,257.27L286.12,254.84L304.88,244.12L309.57,241.19L328.34,228.21L333.03,224.59L347.1,212.92L351.79,208.7L365.86,194.94L370.55,189.92L384.62,172.96L389.31,166.79L398.69,153.17L403.38,145.92L412.76,129.8L417.45,120.63L436.22,83.18L440.91,73.08L454.98,40.66L459.67,28.43L464.36,16" style="vector-effect: non-scaling-stroke; fill: none; stroke: rgb(182, 232, 128); stroke-opacity: 1; stroke-width: 0px; opacity: 1;"/></g><g class="points"/><g class="text"/></g><g class="trace scatter trace502c78" style="stroke-miterlimit: 2;"><g class="fills"/><g class="errorbars"/><g class="lines"><path class="js-line" d="M0,303.99L51.6,303.26L56.29,303.1L89.12,301.27L93.81,300.9L140.72,296.35L145.41,295.77L178.24,291.08L182.93,290.27L211.07,284.76L215.76,283.66L243.91,276.1L248.6,274.68L272.05,266.4L276.74,264.49L295.5,255.93L300.19,253.61L318.95,243.11L323.64,240.23L337.72,230.79L342.41,227.32L361.17,211.98L365.86,207.72L379.93,193.62L384.62,188.36L398.69,171.31L403.38,165.26L417.45,145.56L422.15,137.87L436.22,113.92L440.91,105.3L459.67,65.08L464.36,54.84" style="vector-effect: non-scaling-stroke; fill: none; stroke: rgb(255, 151, 255); stroke-opacity: 1; stroke-width: 0px; opacity: 1;"/></g><g class="points"/><g class="text"/></g></g></g></g><path class="xlines-above crisp" d="M0,0" style="fill: none;"/><path class="ylines-above crisp" d="M0,0" style="fill: none;"/><g class="overlines-above"><path class="xy2-x crisp" d="M0,0" style="fill: none;"/><path class="xy2-y crisp" d="M0,0" style="fill: none;"/></g><g class="xaxislayer-above"><g class="xtick"><text text-anchor="middle" x="0" y="433" transform="translate(80,0)" style="font-family: 'Open Sans', verdana, arial, sans-serif; font-size: 12px; fill: rgb(42, 63, 95); fill-opacity: 1; white-space: pre; opacity: 1;">0</text></g><g class="xtick"><text text-anchor="middle" x="0" y="433" style="font-family: 'Open Sans', verdana, arial, sans-serif; font-size: 12px; fill: rgb(42, 63, 95); fill-opacity: 1; white-space: pre; opacity: 1;" transform="translate(173.81,0)">20</text></g><g class="xtick"><text text-anchor="middle" x="0" y="433" style="font-family: 'Open Sans', verdana, arial, sans-serif; font-size: 12px; fill: rgb(42, 63, 95); fill-opacity: 1; white-space: pre; opacity: 1;" transform="translate(267.62,0)">40</text></g><g class="xtick"><text text-anchor="middle" x="0" y="433" style="font-family: 'Open Sans', verdana, arial, sans-serif; font-size: 12px; fill: rgb(42, 63, 95); fill-opacity: 1; white-space: pre; opacity: 1;" transform="translate(361.43,0)">60</text></g><g class="xtick"><text text-anchor="middle" x="0" y="433" style="font-family: 'Open Sans', verdana, arial, sans-serif; font-size: 12px; fill: rgb(42, 63, 95); fill-opacity: 1; white-space: pre; opacity: 1;" transform="translate(455.24,0)">80</text></g></g><g class="yaxislayer-above"><g class="ytick"><text text-anchor="end" x="79" y="4.199999999999999" transform="translate(0,396.9)" style="font-family: 'Open Sans', verdana, arial, sans-serif; font-size: 12px; fill: rgb(42, 63, 95); fill-opacity: 1; white-space: pre; opacity: 1;">200</text></g><g class="ytick"><text text-anchor="end" x="79" y="4.199999999999999" style="font-family: 'Open Sans', verdana, arial, sans-serif; font-size: 12px; fill: rgb(42, 63, 95); fill-opacity: 1; white-space: pre; opacity: 1;" transform="translate(0,350.08000000000004)">250</text></g><g class="ytick"><text text-anchor="end" x="79" y="4.199999999999999" style="font-family: 'Open Sans', verdana, arial, sans-serif; font-size: 12px; fill: rgb(42, 63, 95); fill-opacity: 1; white-space: pre; opacity: 1;" transform="translate(0,303.27)">300</text></g><g class="ytick"><text text-anchor="end" x="79" y="4.199999999999999" style="font-family: 'Open Sans', verdana, arial, sans-serif; font-size: 12px; fill: rgb(42, 63, 95); fill-opacity: 1; white-space: pre; opacity: 1;" transform="translate(0,256.45)">350</text></g><g class="ytick"><text text-anchor="end" x="79" y="4.199999999999999" style="font-family: 'Open Sans', verdana, arial, sans-serif; font-size: 12px; fill: rgb(42, 63, 95); fill-opacity: 1; white-space: pre; opacity: 1;" transform="translate(0,209.63)">400</text></g><g class="ytick"><text text-anchor="end" x="79" y="4.199999999999999" style="font-family: 'Open Sans', verdana, arial, sans-serif; font-size: 12px; fill: rgb(42, 63, 95); fill-opacity: 1; white-space: pre; opacity: 1;" transform="translate(0,162.82)">450</text></g><g class="ytick"><text text-anchor="end" x="79" y="4.199999999999999" style="font-family: 'Open Sans', verdana, arial, sans-serif; font-size: 12px; fill: rgb(42, 63, 95); fill-opacity: 1; white-space: pre; opacity: 1;" transform="translate(0,116)">500</text></g></g><g class="overaxes-above"><g class="xy2-x"/><g class="xy2-y"><g class="y2tick"><text text-anchor="start" x="545.3599999999999" y="4.199999999999999" transform="translate(0,409.46)" style="font-family: 'Open Sans', verdana, arial, sans-serif; font-size: 12px; fill: rgb(42, 63, 95); fill-opacity: 1; white-space: pre; opacity: 1;">0</text></g><g class="y2tick"><text text-anchor="start" x="545.3599999999999" y="4.199999999999999" style="font-family: 'Open Sans', verdana, arial, sans-serif; font-size: 12px; fill: rgb(42, 63, 95); fill-opacity: 1; white-space: pre; opacity: 1;" transform="translate(0,354.84000000000003)">1</text></g><g class="y2tick"><text text-anchor="start" x="545.3599999999999" y="4.199999999999999" style="font-family: 'Open Sans', verdana, arial, sans-serif; font-size: 12px; fill: rgb(42, 63, 95); fill-opacity: 1; white-space: pre; opacity: 1;" transform="translate(0,300.22)">2</text></g><g class="y2tick"><text text-anchor="start" x="545.3599999999999" y="4.199999999999999" style="font-family: 'Open Sans', verdana, arial, sans-serif; font-size: 12px; fill: rgb(42, 63, 95); fill-opacity: 1; white-space: pre; opacity: 1;" transform="translate(0,245.6)">3</text></g><g class="y2tick"><text text-anchor="start" x="545.3599999999999" y="4.199999999999999" style="font-family: 'Open Sans', verdana, arial, sans-serif; font-size: 12px; fill: rgb(42, 63, 95); fill-opacity: 1; white-space: pre; opacity: 1;" transform="translate(0,190.98000000000002)">4</text></g><g class="y2tick"><text text-anchor="start" x="545.3599999999999" y="4.199999999999999" style="font-family: 'Open Sans', verdana, arial, sans-serif; font-size: 12px; fill: rgb(42, 63, 95); fill-opacity: 1; white-space: pre; opacity: 1;" transform="translate(0,136.36)">5</text></g></g></g></g><g class="subplot xy2"/></g><g class="polarlayer"/><g class="smithlayer"/><g class="ternarylayer"/><g class="geolayer"/><g class="funnelarealayer"/><g class="pielayer"/><g class="iciclelayer"/><g class="treemaplayer"/><g class="sunburstlayer"/><g class="glimages"/><defs id="topdefs-961b04"><g class="clips"/><clipPath id="legend961b04"><rect width="104" height="78" x="0" y="0"/></clipPath></defs><g class="layer-above"><g class="imagelayer"/><g class="shapelayer"/></g><g class="infolayer"><g class="legend" pointer-events="all" transform="translate(583.88,100)"><rect class="bg" shape-rendering="crispEdges" width="104" height="78" x="0" y="0" style="stroke: rgb(68, 68, 68); stroke-opacity: 1; fill: rgb(255, 255, 255); fill-opacity: 1; stroke-width: 0px;"/><g class="scrollbox" transform="" clip-path="url(#legend961b04)"><g class="groups"><g class="traces" transform="translate(0,16.25)" style="opacity: 1;"><text class="legendtext" text-anchor="start" x="40" y="5.85" style="font-family: 'Open Sans', verdana, arial, sans-serif; font-size: 15px; fill: rgb(42, 63, 95); fill-opacity: 1; white-space: pre;">Agent 2</text><g class="layers" style="opacity: 1;"><g class="legendfill"/><g class="legendlines"><path class="js-line" d="M5,0h30" style="fill: none; stroke: rgb(252, 3, 136); stroke-opacity: 1; stroke-width: 2px;"/></g><g class="legendsymbols"><g class="legendpoints"/></g></g><rect class="legendtoggle" x="0" y="-11.25" width="98.921875" height="22.5" style="fill: rgb(0, 0, 0); fill-opacity: 0;"/></g><g class="traces" transform="translate(0,38.75)" style="opacity: 1;"><text class="legendtext" text-anchor="start" x="40" y="5.85" style="font-family: 'Open Sans', verdana, arial, sans-serif; font-size: 15px; fill: rgb(42, 63, 95); fill-opacity: 1; white-space: pre;">Agent 1</text><g class="layers" style="opacity: 1;"><g class="legendfill"/><g class="legendlines"><path class="js-line" d="M5,0h30" style="fill: none; stroke: rgb(163, 2, 2); stroke-opacity: 1; stroke-width: 2px;"/></g><g class="legendsymbols"><g class="legendpoints"/></g></g><rect class="legendtoggle" x="0" y="-11.25" width="98.921875" height="22.5" style="fill: rgb(0, 0, 0); fill-opacity: 0;"/></g><g class="traces" transform="translate(0,61.25)" style="opacity: 1;"><text class="legendtext" text-anchor="start" x="40" y="5.85" style="font-family: 'Open Sans', verdana, arial, sans-serif; font-size: 15px; fill: rgb(42, 63, 95); fill-opacity: 1; white-space: pre;">Glucose</text><g class="layers" style="opacity: 1;"><g class="legendfill"/><g class="legendlines"><path class="js-line" d="M5,0h30" style="fill: none; stroke: rgb(30, 67, 130); stroke-opacity: 1; stroke-width: 2px;"/></g><g class="legendsymbols"><g class="legendpoints"/></g></g><rect class="legendtoggle" x="0" y="-11.25" width="98.921875" height="22.5" style="fill: rgb(0, 0, 0); fill-opacity: 0;"/></g></g></g><rect class="scrollbar" rx="20" ry="3" width="0" height="0" x="0" y="0" style="fill: rgb(128, 139, 164); fill-opacity: 1;"/></g><g class="g-gtitle"/><g class="g-xtitle"><text class="xtitle" x="312.17999999999995" y="460.3" text-anchor="middle" style="font-family: 'Open Sans', verdana, arial, sans-serif; font-size: 14px; fill: rgb(42, 63, 95); opacity: 1; font-weight: normal; white-space: pre;">Time</text></g><g class="g-ytitle"><text class="ytitle" transform="rotate(-90,31.309375000000003,260)" x="31.309375000000003" y="260" text-anchor="middle" style="font-family: 'Open Sans', verdana, arial, sans-serif; font-size: 14px; fill: rgb(42, 63, 95); opacity: 1; font-weight: normal; white-space: pre;">Glucose Concentration</text></g><g class="g-y2title"><text class="y2title" transform="rotate(-90,577.8,260)" x="577.8" y="260" text-anchor="middle" style="font-family: 'Open Sans', verdana, arial, sans-serif; font-size: 14px; fill: rgb(42, 63, 95); opacity: 1; font-weight: normal; white-space: pre;">Agents Concentrations</text></g></g></svg>